<?xml version="1.0" encoding="UTF-8"?>
<svg xmlns="http://www.w3.org/2000/svg" xmlns:xlink="http://www.w3.org/1999/xlink" version="1.1" x="0px" y="0px" viewBox="0 0 500 500" style="background: transparent;" xml:space="preserve">
<g id="BACKGROUND">
	
</g>
<g id="OBJECTS">
	<path style="fill:#EDD3F2;" d="M378.332,50.097c-22.011-10.403-46.052-16.423-70.312-18.169   c-43.384-3.122-86.706,9.726-128.407,20.148c-8.825,2.206-15.98,4.47-22.908,10.638c-6.084,5.417-10.939,12.15-14.881,19.245   c-7.506,13.507-12.402,28.464-21.183,41.179c-15.773,22.836-42.422,36.146-59.015,58.394   c-14.811,19.859-20.356,45.378-20.366,70.152c-0.021,50.637,23.132,101.556,63.553,132.055   c40.422,30.499,97.708,38.469,143.575,17.014c39.582-18.515,67.534-55.567,105.425-77.334c21.759-12.5,46.72-19.922,65.663-36.38   c23.171-20.13,34.048-51.104,38.643-81.452c4.537-29.959,3.65-61.651-9.115-89.132C435.111,86.544,408.168,64.149,378.332,50.097z"/>
	<g>
		<ellipse style="fill:#200026;" cx="159.5" cy="477.5" rx="105.5" ry="10.5"/>
		<g>
			<g>
				<path style="fill:#EBA37B;" d="M226.648,144.63c2.44,0.204,4.951,0.482,7.097,1.661c2.146,1.179,3.854,3.487,3.596,5.922      c-0.208,1.962-1.642,3.624-3.346,4.618c-1.704,0.994-3.667,1.43-5.594,1.852c-14.878,3.258-29.829,6.527-45.032,7.434      c-3.077,0.184-6.218,0.263-9.182-0.583c-2.964-0.846-5.766-2.757-6.984-5.588c-1.289-2.994-0.59-6.586,1.208-9.305      c5.338-8.069,16.592-5.932,25.101-6.309C204.551,143.843,215.628,143.71,226.648,144.63z"/>
				<g>
					<path style="fill:#EBA37B;" d="M177.72,145.914c2.268,1.503,4.584,3.051,6.206,5.237c1.622,2.185,2.437,5.173,1.37,7.676       c-1.04,2.44-3.662,3.919-6.29,4.277c-3.207,0.436-6.187-0.692-9.31-1.099c-3.538-0.461-7.062-0.812-10.516-1.76       c-3.928-1.079-7.741-2.854-10.686-5.669c-2.699-2.579-4.569-5.94-5.753-9.48c-0.866-2.592-1.38-5.417-0.643-8.049       c0.674-2.407,2.414-4.493,4.661-5.588c5.229-2.548,10.832,1.121,15.109,3.949C167.156,138.904,172.436,142.412,177.72,145.914z       "/>
					<g>
						
							<path style="fill:none;stroke:#000000;stroke-width:1.1253;stroke-linecap:round;stroke-linejoin:round;stroke-miterlimit:10;" d="        M176.546,145.39c0.114,2.23-0.024,4.473-0.41,6.673"/>
					</g>
				</g>
				<g>
					<path style="fill:#FF770B;" d="M168.186,139.017c-3.825,8.089-9.033,15.521-15.331,21.878       c-6.973-1.737-13.978-3.864-19.971-7.829c-5.993-3.965-10.924-10.029-12.057-17.126c-0.513-3.211,0.071-6.67,1.157-9.705       c0.932-2.602,2.814-6.769,5.784-7.439c1.258-0.284,2.571-0.103,3.837,0.137c4.291,0.813,8.45,2.309,12.282,4.401       c3.638,1.986,7.254,4.044,10.754,6.267C159.284,132.551,163.804,135.693,168.186,139.017z"/>
					
						<path style="fill:none;stroke:#000000;stroke-width:1.1253;stroke-linecap:round;stroke-linejoin:round;stroke-miterlimit:10;" d="       M166.017,137.843c-3.038,5.643-6.547,11.032-10.48,16.093"/>
				</g>
			</g>
			<g>
				<g>
					<path style="fill:#FF770B;" d="M236.716,455.073c-1.649-0.548-3.403-0.678-5.132-0.854c-9.174-0.938-18.24-3.342-26.464-7.515       c-2.292-1.163-4.537-2.47-6.999-3.21c-6.531-1.964-13.496,0.295-20.311,0.554c-2.222,8.557-1.967,18.116-0.947,26.913       c5.187,0.115,10.373,0.23,15.56,0.345c0.608-1.96,1.217-3.919,1.825-5.879c0.369-1.19,12.956,1.22,14.149,1.846       c1.808,0.947,3.201,2.389,5.211,3.15c2.11,0.799,4.354,1.23,6.601,1.389c4.227,0.3,8.46-0.312,12.653-0.923       c2.099-0.306,4.324-0.668,5.919-2.066c2.182-1.914,2.407-5.008,2.254-7.717C240.861,458.004,239.88,456.125,236.716,455.073z"/>
					<path style="fill:none;stroke:#000000;stroke-width:1.1253;stroke-linecap:round;stroke-miterlimit:10;" d="M199.738,449.251       c-0.641,1.243-0.101,3.066,1.243,3.453c0.823,0.237,1.721-0.088,2.397-0.613c0.676-0.526,1.181-1.234,1.719-1.901       c1.955-2.422,4.467-4.393,7.285-5.716c1.148-0.539,2.415-0.979,3.666-0.766c1.25,0.213,2.431,1.281,2.366,2.548       c-0.048,0.922-0.735,1.718-1.559,2.134c-0.824,0.416-1.77,0.514-2.692,0.555c-2.561,0.114-4.967-0.168-7.391-0.956       C204.527,447.262,201.08,446.648,199.738,449.251z"/>
					<path style="fill:none;stroke:#000000;stroke-width:1.1253;stroke-linecap:round;stroke-miterlimit:10;" d="M213.614,454.242       c2.617-2.355,5.839-4.033,9.269-4.827"/>
					<path style="fill:none;stroke:#000000;stroke-width:1.1253;stroke-linecap:round;stroke-miterlimit:10;" d="M218.277,456.731       c2.529-2.663,5.768-4.646,9.289-5.688"/>
					<path style="fill:none;stroke:#000000;stroke-width:1.1253;stroke-linecap:round;stroke-miterlimit:10;" d="M225.785,458.862       c2.047-2.914,4.919-5.243,8.193-6.646"/>
					<path style="fill:none;stroke:#000000;stroke-width:1.1253;stroke-linecap:round;stroke-miterlimit:10;" d="M176.058,461.415       c9.335,1.221,18.884-0.55,28.196,0.833c6.013,0.893,11.802,3.087,17.856,3.629c5.941,0.532,11.895-0.546,17.763-1.619"/>
				</g>
				<g>
					<polygon style="fill:#200026;" points="126.986,281.983 173.24,444.973 208.126,444.973 167.051,239.598 123.725,244.662             "/>
					
						<path style="fill:none;stroke:#FFFFFF;stroke-width:1.1253;stroke-linecap:round;stroke-linejoin:round;stroke-miterlimit:10;" d="       M154.687,249.235c1.946,2.978,3.929,6,6.634,8.311c2.704,2.311,6.278,3.856,9.797,3.333"/>
					
						<path style="fill:none;stroke:#FFFFFF;stroke-width:1.1253;stroke-linecap:round;stroke-linejoin:round;stroke-miterlimit:10;" d="       M172.385,440.832c11.339-1.628,22.768-2.628,34.217-2.994"/>
					
						<path style="fill:none;stroke:#FFFFFF;stroke-width:1.1253;stroke-linecap:round;stroke-linejoin:round;stroke-miterlimit:10;" d="       M176.762,344.594c-0.867,0.043-1.593,0.739-1.932,1.538c-0.339,0.799-0.368,1.691-0.388,2.558       c-0.047,2.013-0.065,4.092,0.699,5.956c0.764,1.864,2.517,3.472,4.53,3.43"/>
				</g>
			</g>
			<g>
				<g>
					<path style="fill:#FF770B;" d="M141.062,465.202c-1.649-0.548-3.403-0.678-5.132-0.854c-9.174-0.938-18.24-3.341-26.464-7.515       c-2.292-1.163-4.537-2.47-6.999-3.21c-6.531-1.964-13.496,0.295-20.311,0.554c-2.222,8.558-1.967,18.116-0.947,26.913       c5.187,0.115,10.373,0.23,15.56,0.345c0.608-1.96,1.216-3.919,1.825-5.879c0.369-1.19,12.956,1.22,14.149,1.846       c1.808,0.947,3.201,2.389,5.211,3.15c2.11,0.799,4.354,1.23,6.601,1.389c4.227,0.3,8.46-0.312,12.654-0.923       c2.099-0.306,4.324-0.668,5.919-2.066c2.182-1.915,2.407-5.008,2.254-7.717C145.206,468.132,144.226,466.253,141.062,465.202z"/>
					<path style="fill:none;stroke:#000000;stroke-width:1.1253;stroke-linecap:round;stroke-miterlimit:10;" d="M96.781,460.52       c-0.909,1.205-1.509,2.885-0.779,4.205c0.669,1.209,2.212,1.652,3.593,1.614c4.019-0.113,7.281-3.19,9.879-6.258       c2.599-3.068,5.195-6.493,9.004-7.778c1.255-0.423,2.638-0.584,3.904-0.195c1.266,0.389,2.384,1.399,2.667,2.692       c0.442,2.022-1.281,3.999-3.253,4.625C113.721,461.987,103.233,451.963,96.781,460.52z"/>
					<path style="fill:none;stroke:#000000;stroke-width:1.1253;stroke-linecap:round;stroke-miterlimit:10;" d="M111.301,464.906       c3.801-2.115,8.119-3.293,12.468-3.399"/>
					<path style="fill:none;stroke:#000000;stroke-width:1.1253;stroke-linecap:round;stroke-miterlimit:10;" d="M118.924,466.285       c3.442-2.145,7.354-3.531,11.378-4.032"/>
					<path style="fill:none;stroke:#000000;stroke-width:1.1253;stroke-linecap:round;stroke-miterlimit:10;" d="M128.528,467.696       c1.857-2.481,4.456-4.4,7.374-5.443"/>
					<path style="fill:none;stroke:#000000;stroke-width:1.1253;stroke-linecap:round;stroke-miterlimit:10;" d="M81.33,471.651       c10.868-0.621,21.828,0.398,32.395,3.013c5.128,1.268,10.185,2.914,15.426,3.572c5.241,0.658,10.802,0.25,15.391-2.367"/>
				</g>
				<g>
					<polygon style="fill:#200026;" points="74.773,256.478 79.837,455.101 107.97,455.101 125.413,284.611 138.354,279.547        143.981,245.787      "/>
					
						<path style="fill:none;stroke:#FFFFFF;stroke-width:1.1253;stroke-linecap:round;stroke-linejoin:round;stroke-miterlimit:10;" d="       M75.129,272.4c4.406,0.149,8.848-1.296,12.323-4.009c3.474-2.713,5.954-6.673,6.877-10.983"/>
					
						<path style="fill:none;stroke:#FFFFFF;stroke-width:1.1253;stroke-linecap:round;stroke-linejoin:round;stroke-miterlimit:10;" d="       M132.981,254.871c-0.566,5.512-0.598,11.078-0.097,16.597c-1.923-0.131-3.873,0.156-5.675,0.837"/>
					
						<path style="fill:none;stroke:#FFFFFF;stroke-width:1.1253;stroke-linecap:round;stroke-linejoin:round;stroke-miterlimit:10;" d="       M79.756,449.058c9.502-0.085,19.001-0.636,28.449-1.652"/>
					
						<path style="fill:none;stroke:#FFFFFF;stroke-width:1.1253;stroke-linecap:round;stroke-linejoin:round;stroke-miterlimit:10;" d="       M107.821,349.411c-3.351,3.46-5.45,8.108-5.829,12.909c-0.076,0.963-0.079,1.962,0.289,2.855       c0.368,0.893,1.187,1.658,2.152,1.702"/>
				</g>
			</g>
			<g>
				<path style="fill:#FF770B;" d="M176.736,212.872c0-9.079,2.744-16.289,8.232-21.628c5.487-5.337,12.971-8.008,22.452-8.008      c6.785,0,12.199,1.897,16.24,5.688c4.041,3.794,6.062,9.13,6.062,16.015c0,8.682-2.746,15.716-8.232,21.104      c-5.489,5.389-12.624,8.083-21.404,8.083c-7.386,0-13.122-1.897-17.213-5.688C178.781,224.647,176.736,219.458,176.736,212.872z      "/>
				<path style="fill:#200026;" d="M186.806,173l2.096-11.675c1.894-10.276,5.561-19.107,11.001-26.493      c5.438-7.383,14.044-15.117,25.819-23.2c12.372-8.382,20.23-14.718,23.574-19.009c3.342-4.289,5.014-9.079,5.014-14.369      c0-11.873-6.637-17.811-19.907-17.811c-4.991,0-10.305,0.8-15.941,2.395c-5.639,1.597-15.693,5.788-30.16,12.573l-13.77-33.079      c22.95-12.472,45.151-18.71,66.606-18.71c17.662,0,31.63,4.367,41.91,13.097c10.275,8.732,15.416,20.931,15.416,36.596      c0,8.284-1.422,15.742-4.266,22.377c-2.844,6.637-6.959,12.774-12.348,18.41c-5.389,5.639-14.869,12.998-28.439,22.078      c-6.387,4.292-11.202,7.933-14.443,10.926c-3.244,2.994-5.863,6.212-7.858,9.654c-1.997,3.442-3.892,8.857-5.688,16.24H186.806z      "/>
				<path style="fill:#FF770B;" d="M184.806,170.491l2.096-11.675c1.894-10.276,5.561-19.107,11.001-26.493      c5.438-7.383,14.044-15.117,25.819-23.2c12.372-8.382,20.23-14.718,23.574-19.009c3.342-4.289,5.014-9.079,5.014-14.369      c0-11.874-6.637-17.812-19.907-17.812c-4.991,0-10.305,0.8-15.941,2.395c-5.639,1.597-15.693,5.788-30.16,12.573l-13.77-33.079      c22.95-12.472,45.151-18.71,66.606-18.71c17.662,0,31.63,4.367,41.91,13.097c10.275,8.732,15.416,20.931,15.416,36.596      c0,8.284-1.422,15.742-4.266,22.377c-2.844,6.637-6.959,12.774-12.348,18.41c-5.389,5.639-14.869,12.999-28.439,22.078      c-6.387,4.292-11.202,7.933-14.443,10.926c-3.244,2.994-5.863,6.212-7.858,9.654c-1.997,3.442-3.892,8.857-5.688,16.24H184.806z      "/>
				
					<path style="fill:none;stroke:#FFFFFF;stroke-width:1.1253;stroke-linecap:round;stroke-linejoin:round;stroke-miterlimit:10;" d="      M188.92,30.885c0.135,4.727,3.244,9.054,7.323,11.448c4.079,2.394,8.988,3.052,13.706,2.722      c14.082-0.984,27.101-11.079,31.56-24.473"/>
				
					<path style="fill:none;stroke:#FFFFFF;stroke-width:1.1253;stroke-linecap:round;stroke-linejoin:round;stroke-miterlimit:10;" d="      M245.421,59.992c4.188-2.056,8.439-4.133,13.023-5.001c4.584-0.868,9.62-0.393,13.417,2.318      c3.349,2.392,5.398,6.287,6.279,10.308c1.972,9-1.871,19.002-9.361,24.367c-7.49,5.365-18.197,5.783-26.083,1.019"/>
				
					<path style="fill:none;stroke:#FFFFFF;stroke-width:1.1253;stroke-linecap:round;stroke-linejoin:round;stroke-miterlimit:10;" d="      M237.041,143.99c-4.994-6.787-7.921-15.812-5.05-23.735c3.098-8.55,12.312-13.711,21.371-14.512      c9.059-0.802,18.03,1.972,26.566,5.108"/>
				
					<path style="fill:none;stroke:#FFFFFF;stroke-width:1.1253;stroke-linecap:round;stroke-linejoin:round;stroke-miterlimit:10;" d="      M250.039,35.694c-0.971,3.585,0.54,7.727,3.639,9.773c3.099,2.047,7.561,1.782,10.341-0.681      c2.112-1.871,3.146-4.715,3.441-7.521c0.292-2.772-0.137-5.779-1.957-7.891C261.021,24.17,251.476,30.392,250.039,35.694z"/>
				
					<path style="fill:none;stroke:#FFFFFF;stroke-width:1.1253;stroke-linecap:round;stroke-linejoin:round;stroke-miterlimit:10;" d="      M213.5,116.5c3.956,3.29,5.782,8.967,4.748,14.008c-1.034,5.041-5,9.368-9.933,10.836c-4.932,1.468-10.313,0.501-13.935-3.155"/>
				
					<path style="fill:none;stroke:#FFFFFF;stroke-width:1.1253;stroke-linecap:round;stroke-linejoin:round;stroke-miterlimit:10;" d="      M211.324,183.023c-5.99,5.63-7.84,15.21-4.378,22.666c3.462,7.456,11.975,12.223,20.142,11.28"/>
				
					<path style="fill:none;stroke:#FFFFFF;stroke-width:1.1253;stroke-linecap:round;stroke-linejoin:round;stroke-miterlimit:10;" d="      M186.894,212.146c0.892,3.325,4.049,5.909,7.485,6.125c2.609,0.164,5.375-1.097,6.577-3.418      c0.848-1.638,0.856-3.623,0.311-5.385c-0.689-2.225-2.242-4.171-4.26-5.334c-2.434-1.403-6.031-2.068-8.104,0.167      C186.995,206.358,186.163,209.422,186.894,212.146z"/>
			</g>
			<g>
				<path style="fill:#FF770B;" d="M74.427,261.154c17.152-1.914,34.305-3.829,51.458-5.743c8.776-0.979,17.552-1.953,26.327-2.938      c3.903-0.438,17.09-3.873,17.09-3.873s-1.019-2.433-1.308-3.802c-2.925-13.897-6.022-27.442-7.543-41.544      c-1.888-17.508-3.776-35.016-5.664-52.523c-0.93-8.626-2.164-17.929-8.172-24.186c-5.799-6.039-14.743-7.788-23.109-8.084      c-18.101-0.64-49.13,1.598-56.17,22.161c-1.623,4.741-1.849,9.834-1.937,14.844C64.773,191.079,71.668,225.832,74.427,261.154z"/>
				
					<path style="fill:none;stroke:#FFFFFF;stroke-width:1.1253;stroke-linecap:round;stroke-linejoin:round;stroke-miterlimit:10;" d="      M70.115,220.148c0.22-5.797,5.569-10.914,11.37-10.877c7.126,0.045,13.168,6.682,20.263,6.013      c4.897-0.462,8.706-4.264,12.259-7.667c3.553-3.402,7.923-6.835,12.81-6.273c5.848,0.672,9.692,6.75,15.357,8.35      c3.498,0.988,7.351,0.098,10.426-1.84c3.075-1.938,5.441-4.838,7.307-7.957"/>
				
					<path style="fill:none;stroke:#FFFFFF;stroke-width:1.1253;stroke-linecap:round;stroke-linejoin:round;stroke-miterlimit:10;" d="      M67.478,192.57c1.473-3.796,5.901-5.733,9.972-5.666c4.071,0.068,7.927,1.696,11.748,3.103s7.918,2.628,11.915,1.851      c4.947-0.962,8.761-4.754,12.538-8.091c3.777-3.337,8.394-6.548,13.397-5.94c5.478,0.666,9.361,5.632,14.429,7.815      c5.293,2.28,11.883,1.142,16.104-2.782"/>
				
					<path style="fill:none;stroke:#000000;stroke-width:1.1253;stroke-linecap:round;stroke-linejoin:round;stroke-miterlimit:10;" d="      M155.31,157.206c0.247-8.039-1.092-16.123-3.92-23.652"/>
				
					<path style="fill:none;stroke:#000000;stroke-width:1.1253;stroke-linecap:round;stroke-linejoin:round;stroke-miterlimit:10;" d="      M90.217,121.648c-0.665,1.551-0.686,3.34-0.205,4.958s1.443,3.069,2.638,4.261c2.743,2.739,6.647,4.096,10.515,4.348      c3.868,0.253,7.733-0.512,11.474-1.523c2.394-0.647,4.781-1.406,6.942-2.624c2.161-1.218,4.1-2.929,5.25-5.127      s1.434-4.913,0.424-7.178"/>
			</g>
			<g>
				<g>
					<path style="fill:#F7AC81;" d="M90.282,92.794c-3,4.092-0.596,11.021-0.022,15.603c0.654,5.221,1.308,10.442,1.963,15.662       c0.142,1.138,0.308,2.334,1.001,3.247c0.584,0.771,1.474,1.243,2.356,1.64c4.737,2.132,10.135,2.767,15.237,1.791       c2.645-0.506,5.204-1.443,7.558-2.748c1.251-0.693,2.445-1.49,3.563-2.382c0.776-0.619,2.369-1.378,2.507-2.431       c0.079-0.601-0.113-1.202-0.306-1.776c-3.73-11.069-9.51-21.935-18.965-28.793c-2.524-1.831-5.469-3.396-8.582-3.227       C94.123,89.513,91.742,90.802,90.282,92.794z"/>
					<path style="fill:#F78681;" d="M108.258,120.811c4.973,1.669,10.628,1.187,15.247-1.299c-1.127-2.822-2.261-5.656-3.8-8.277       c-0.381-0.648-0.812-1.307-1.467-1.675c-1.014-0.569-2.271-0.301-3.402-0.033c-4.595,1.088-9.38,1.912-14.109,1.32       c-0.836-0.105-2.203-0.676-2.884,0.073c-0.69,0.759,0.089,1.664,0.537,2.328c1.107,1.642,2.468,3.112,4.014,4.349       C104.144,118.995,106.134,120.098,108.258,120.811z"/>
				</g>
				<g>
					<path style="fill:#F7AC81;" d="M135.373,95.367c0.213,2.832,0.31,5.826-1.001,8.345c-1.65,3.168-5.129,4.869-8.412,6.277       c-4.851,2.08-9.858,4.002-15.112,4.494c-5.255,0.492-10.85-0.596-14.902-3.978c-2.224-1.856-3.881-4.3-5.297-6.827       c-3.708-6.616-5.974-14.183-5.518-21.753c0.456-7.57,3.833-15.106,9.806-19.778c4.105-3.211,9.153-4.936,14.132-6.477       c2.64-0.818,5.525-1.595,8.109-0.614c2.878,1.092,4.568,3.949,7.238,5.385c1.834,0.986,3.817,0.93,4.832,2.958       c1.463,2.921,1.998,6.776,2.739,9.944c0.803,3.433,1.481,6.895,2.031,10.377C134.627,87.581,135.08,91.468,135.373,95.367z"/>
					<g>
						<path style="fill:#200026;" d="M77.265,61.137c-4.064,1.904-7.096,5.737-8.341,10.049c-1.245,4.311-0.771,9.036,0.99,13.164        c0.794,1.862,1.869,3.648,3.419,4.949c1.698,1.426,3.873,2.188,6.065,2.523c4.124,0.631,8.49-0.213,11.98-2.499        c3.49-2.286,6.037-6.027,6.696-10.147c0.659-4.119-0.641-8.547-3.557-11.53c12.177,0.015,24.503-1.872,35.995-5.897        c2.701-0.946,5.425-2.036,7.577-3.924c2.151-1.888,3.658-4.733,3.257-7.567c-0.461-3.259-3.337-5.758-6.467-6.773        s-6.506-0.833-9.792-0.64c-8.225,0.483-16.45,0.967-24.675,1.45c-2.106,0.124-4.212,0.255-6.319,0.371        c-1.533,0.085-2.888-0.335-4.418-0.279c-3.28,0.119-6.519,1.389-8.967,3.581c-1.945,1.741-3.368,4.044-4.11,6.542        c-0.372,1.251-0.659,2.66-0.589,3.973C76.026,58.803,76.537,61.478,77.265,61.137z"/>
						<path style="fill:#31003B;" d="M70.354,76.506c0.744-0.897,1.489-1.794,2.233-2.691c0.199,0.534,0.17,1.122,0.161,1.693        c-0.009,0.57,0.013,1.169,0.297,1.664c0.284,0.495,0.912,0.838,1.438,0.618c0.421-0.175,0.642-0.629,0.826-1.045        c1.042-2.35,2.083-4.699,3.125-7.049c0.188-0.424,0.38-0.867,0.361-1.331s-0.317-0.951-0.776-1.024        c-0.427-0.067-0.825,0.233-1.099,0.567c-0.274,0.334-0.493,0.727-0.85,0.97c-0.358,0.242-0.927,0.257-1.153-0.111        c-0.259-0.422,0.104-0.955,0.084-1.45c-0.051-1.27-1.478-0.895-1.975-0.179c-0.506,0.729-0.94,1.681-1.355,2.472        C70.57,71.711,70.091,74.144,70.354,76.506z"/>
						<path style="fill:#31003B;" d="M82.23,72.905c-0.493,1.432-0.487,2.981-0.476,4.496c0.002,0.297,0.035,0.649,0.294,0.794        c0.373,0.209,0.78-0.205,1.008-0.567c0.363-0.574,0.725-1.149,1.088-1.724c0.149-0.236,0.326-0.492,0.598-0.55        c0.414-0.089,0.774,0.355,0.805,0.777c0.031,0.422-0.148,0.827-0.239,1.24c-0.091,0.413-0.063,0.912,0.272,1.169        c0.536,0.412,1.301-0.136,1.613-0.736c0.312-0.6,0.512-1.345,1.121-1.638c0.473-0.227,1.077-0.074,1.442,0.303        s0.504,0.936,0.44,1.457c-0.068,0.552-0.343,1.067-0.378,1.622c-0.035,0.555,0.325,1.215,0.881,1.182        c0.345-0.02,0.615-0.297,0.833-0.566c1.963-2.416,2.757-5.741,2.097-8.784c-0.211-0.972-0.756-2.075-1.746-2.166        c-0.606-0.055-1.171,0.305-1.629,0.706c-0.458,0.401-0.882,0.868-1.443,1.104c-0.561,0.236-1.323,0.151-1.626-0.377        c-0.335-0.585-0.022-1.502-0.583-1.875c-0.837-0.556-1.583,0.92-2.128,1.35C83.453,70.929,82.672,71.622,82.23,72.905z"/>
						<path style="fill:#31003B;" d="M91.796,61.743c0.163-0.769-1.331-1.171-1.109-1.926c0.105-0.357,0.555-0.484,0.924-0.444        c0.37,0.04,0.733,0.187,1.102,0.139c0.645-0.084,1.08-0.762,1.105-1.412c0.025-0.649-0.262-1.267-0.569-1.84        c-0.306-0.573-0.645-1.15-0.739-1.792c-0.169-1.157,0.596-2.38,1.71-2.734c0.679-0.216,1.417-0.133,2.114-0.282        c0.696-0.149,1.421-0.683,1.374-1.394c-0.051-0.771-0.922-1.176-1.664-1.394c-2.838-0.833-5.779-1.318-8.735-1.44        c-0.004,1.716,2.328,2.927,1.966,4.604c-0.248,1.149-1.599,1.628-2.751,1.862c-1.152,0.234-2.504,0.574-2.926,1.671        c-0.486,1.263,0.871,3.547,1.913,4.329C87.242,60.989,89.666,61.633,91.796,61.743z"/>
						<path style="fill:#31003B;" d="M109.132,61.384c0.307-0.082,0.647-0.203,0.778-0.493c0.232-0.512-0.381-1.017-0.932-1.125        c-0.551-0.109-1.195-0.089-1.569-0.509c1.049-0.191,2.297-0.557,2.566-1.588c0.171-0.656-0.149-1.343-0.568-1.875        c-0.42-0.532-0.947-0.981-1.3-1.559c-0.398-0.651-0.549-1.47-0.32-2.198c0.229-0.728,0.866-1.335,1.621-1.446        c0.763-0.112,1.796,0.138,2.113-0.565c0.264-0.586-0.334-1.197-0.914-1.473c-1.86-0.884-4.04-0.569-6.072-0.236        c-0.879,0.144-1.951,0.469-2.1,1.347c-0.12,0.709,0.457,1.318,0.817,1.941c0.591,1.021,0.616,2.346,0.065,3.389        c-0.444,0.84-1.203,1.458-1.884,2.12c-0.681,0.663-1.328,1.453-1.43,2.397C99.597,63.284,107.239,61.892,109.132,61.384z"/>
						<path style="fill:#31003B;" d="M119.289,47.211c-0.285,0.134-0.595,0.316-0.665,0.623c-0.117,0.514,0.495,0.874,1.004,1.011        c0.51,0.136,1.143,0.353,1.189,0.878c0.062,0.7-0.982,0.992-1.18,1.666c-0.152,0.517,0.267,1.041,0.744,1.292        s1.029,0.34,1.493,0.614c0.799,0.471,1.216,1.451,1.16,2.377c-0.055,0.926-0.526,1.79-1.155,2.472        c-0.316,0.342-0.675,0.65-0.93,1.04c-0.255,0.39-0.394,0.895-0.213,1.325c0.196,0.468,0.726,0.724,1.233,0.747        s1-0.146,1.48-0.311c1.891-0.653,3.781-1.306,5.672-1.959c0.322-0.111,0.653-0.228,0.904-0.457        c0.251-0.23,0.402-0.604,0.272-0.918c-0.207-0.498-0.883-0.516-1.413-0.616c-1.004-0.191-1.85-0.992-2.16-1.965        c-0.31-0.974-0.102-2.082,0.484-2.919c0.408-0.582,1.023-1.201,0.81-1.879c-0.153-0.485-0.685-0.743-1.184-0.844        c-0.499-0.101-1.029-0.105-1.484-0.333c-0.455-0.228-0.803-0.798-0.563-1.247c0.22-0.413,0.808-0.517,1.028-0.93        c0.767-1.442-2.07-1.279-2.722-1.085C121.831,46.166,120.477,46.653,119.289,47.211z"/>
					</g>
					<g>
						<path style="fill:#F7AC81;" d="M86.265,108.045c7.765-0.662,5.964-11.295,3.473-15.971c-1.616-3.033-4.57-7.019-8.511-5.861        c-2.095,0.615-3.695,2.431-4.456,4.478c-0.76,2.047-0.773,4.302-0.491,6.468c0.353,2.7,1.188,5.407,2.892,7.532        C80.875,106.815,83.551,108.276,86.265,108.045z"/>
						
							<path style="fill:none;stroke:#000000;stroke-width:1.1253;stroke-linecap:round;stroke-linejoin:round;stroke-miterlimit:10;" d="        M84.654,91.49c-0.468-0.656-1.494-0.696-2.174-0.263c-0.679,0.433-1.066,1.203-1.312,1.97        c-0.608,1.898-0.497,4.094,0.622,5.743c1.119,1.65,3.345,2.579,5.218,1.898"/>
					</g>
					<g>
						<path d="M111.672,85.795c0.073,0.343,0.186,0.696,0.441,0.936c0.45,0.423,1.215,0.338,1.697-0.047        c0.483-0.385,0.733-0.99,0.892-1.586c0.18-0.677,0.264-1.401,0.064-2.073c-0.199-0.671-0.728-1.276-1.415-1.409        C111.324,81.222,111.42,84.601,111.672,85.795z"/>
						<path d="M126.025,81.211c0.106,0.422,0.284,0.841,0.6,1.14c0.316,0.3,0.79,0.458,1.201,0.314        c0.503-0.177,0.764-0.723,0.935-1.229c0.246-0.728,0.417-1.509,0.266-2.262c-0.176-0.875-1.144-2.079-2.123-1.505        C125.821,78.305,125.764,80.171,126.025,81.211z"/>
						
							<path style="fill:none;stroke:#000000;stroke-width:1.1253;stroke-linecap:round;stroke-linejoin:round;stroke-miterlimit:10;" d="        M120.957,81.901c0.892,3.082,2.243,6.031,3.995,8.719c0.243,0.373,0.504,0.826,0.332,1.237        c-0.138,0.33-0.504,0.492-0.837,0.624c-0.922,0.363-1.844,0.727-2.765,1.09"/>
						
							<path style="fill:none;stroke:#000000;stroke-width:1.1253;stroke-linecap:round;stroke-linejoin:round;stroke-miterlimit:10;" d="        M117.376,102.392c1.771-2.327,4.576-3.835,7.494-4.029"/>
						
							<path style="fill:none;stroke:#000000;stroke-width:1.1253;stroke-linecap:round;stroke-linejoin:round;stroke-miterlimit:10;" d="        M107.084,77.874c1.397,0.622,3.011,0.741,4.485,0.331c1.473-0.41,2.794-1.345,3.67-2.599"/>
						
							<path style="fill:none;stroke:#000000;stroke-width:1.1253;stroke-linecap:round;stroke-linejoin:round;stroke-miterlimit:10;" d="        M123.624,74.266c0.822-0.99,1.711-1.98,2.877-2.523c1.166-0.543,2.684-0.53,3.613,0.36"/>
						<path style="fill:#F78681;" d="M102.536,93.465c-0.445,1.317-0.138,2.819,0.631,3.976c1.039,1.565,3.115,2.543,4.867,1.867        c0.897-0.347,1.608-1.072,2.115-1.889c0.633-1.02,0.99-2.234,0.869-3.428c-0.121-1.194-0.752-2.355-1.766-2.997        C107.198,89.694,103.301,91.199,102.536,93.465z"/>
						<path style="fill:#F78681;" d="M127.796,89.058c-0.404,1.604,0.529,3.435,2.064,4.052s3.475-0.06,4.294-1.497        c0.987-1.734,0.306-4.929-1.766-5.625C130.758,85.44,128.18,87.533,127.796,89.058z"/>
					</g>
				</g>
			</g>
			<g>
				<path style="fill:#F7AC81;" d="M222.226,141.381c0.056-1.005,0.327-1.986,0.883-2.818c0.684-1.023,1.734-1.734,2.765-2.405      c1.678-1.091,3.418-2.158,5.359-2.646c1.296-0.326,2.77-0.353,3.864,0.414c1.052,0.737,1.53,2.033,1.948,3.247      c1.011,2.934,2.024,5.868,3.033,8.803c0.881,2.56,0.949,5.413-0.356,7.851c-1.086,2.031-3.103,3.539-5.358,4.007      c-3.877,0.806-6.936-1.436-8.722-4.732c-0.821-1.517-1.272-3.298-1.673-4.967c-0.401-1.667-1.308-3.182-1.622-4.903      C222.238,142.626,222.191,141.999,222.226,141.381z"/>
				
					<path style="fill:none;stroke:#000000;stroke-width:1.1253;stroke-linecap:round;stroke-linejoin:round;stroke-miterlimit:10;" d="      M223.446,138.591c2.211,3.779,4.205,7.684,5.971,11.69"/>
				
					<path style="fill:none;stroke:#000000;stroke-width:1.1253;stroke-linecap:round;stroke-linejoin:round;stroke-miterlimit:10;" d="      M227.883,135.253c3.208,4.238,3.871,7.956,6.365,12.65"/>
				
					<path style="fill:none;stroke:#000000;stroke-width:1.1253;stroke-linecap:round;stroke-linejoin:round;stroke-miterlimit:10;" d="      M231.685,133.712c2.118,3.785,3.847,7.788,5.152,11.925"/>
			</g>
			<g>
				<g>
					<path style="fill:#F7AC81;" d="M117.98,156.143c5.519,3.992,11.192,8.15,14.665,14.009c2.408,4.063,3.453,9.673,0.365,13.246       c-1.682,1.946-4.303,2.886-6.871,3.03c-2.568,0.144-5.119-0.423-7.611-1.06c-8.268-2.113-16.329-5.03-24.035-8.697       c-6.073-2.89-12.01-6.311-16.695-11.136c-4.685-4.825-8.039-11.223-8.098-17.948c-0.08-9.307,7.446-20.277,17.075-14.007       C97.487,140.554,107.621,148.651,117.98,156.143z"/>
					<g>
						<path style="fill:#FF770B;" d="M62.004,145.084c-1.126,7.238,1.238,14.754,5.511,20.704s12.007,11.922,18.511,15.292        c8.088-10.18,16.045-21.352,22.507-32.635c-5.107-3.07-11.578-8.568-16.146-12.396c-4.166-3.491-9.783-7.476-15.45-7.718        c-4.629-0.197-9.308,4.619-11.623,8.164C63.625,139.081,62.479,142.03,62.004,145.084z"/>
						
							<path style="fill:none;stroke:#000000;stroke-width:1.1253;stroke-linecap:round;stroke-linejoin:round;stroke-miterlimit:10;" d="        M64.807,162.784c5.506,7.242,12.423,13.406,20.249,18.043c1.46-2.352,4.574-3.585,6.034-5.937"/>
						
							<path style="fill:none;stroke:#000000;stroke-width:1.1253;stroke-linecap:round;stroke-linejoin:round;stroke-miterlimit:10;" d="        M92.344,135.012c4.24,4.603,11.382,10.781,16.752,13.996"/>
						
							<path style="fill:none;stroke:#000000;stroke-width:1.1253;stroke-linecap:round;stroke-linejoin:round;stroke-miterlimit:10;" d="        M81.204,178.511c5.576-12.097,13.614-23.052,23.479-32.002"/>
					</g>
				</g>
				<g>
					<path style="fill:#F7AC81;" d="M115.022,170.505c-1.499,5.28,0.913,11.418,5.607,14.263c4.128,2.503,9.291,2.445,14.086,1.885       c8.818-1.029,17.408-3.484,25.838-6.267c7.045-2.326,14.01-4.887,20.931-7.559c3.268-1.262,6.676-2.655,8.884-5.374       c2.208-2.719,2.671-7.19,0.042-9.506c-1.751-1.543-4.284-1.723-6.617-1.775c-10.542-0.239-21.078,0.55-31.541,1.785       c-5.195,0.613-10.376,1.338-15.55,2.103c-4.209,0.622-9.131,0.56-13.153,1.84C119.559,163.169,116.175,166.448,115.022,170.505       z"/>
					
						<path style="fill:none;stroke:#000000;stroke-width:1.1253;stroke-linecap:round;stroke-linejoin:round;stroke-miterlimit:10;" d="       M124.931,162.632c-0.505,2.046-0.709,4.165-0.603,6.27"/>
					
						<path style="fill:none;stroke:#000000;stroke-width:1.1253;stroke-linecap:round;stroke-linejoin:round;stroke-miterlimit:10;" d="       M119.994,178.901c1.824-0.52,3.749-0.854,5.615-0.518c1.866,0.336,3.673,1.44,4.464,3.163"/>
				</g>
				<g>
					<g>
						<g>
							<path style="fill:#F7AC81;" d="M194.976,150.964c1.05-0.436,2.102-0.85,3.139-1.253c2.355-0.915,4.935-1.732,7.369-1.053         c1.94,0.542,3.547,2.016,4.477,3.803c1.617,3.106,1.596,7.053-0.692,9.8c-1.529,1.835-3.672,3.041-5.831,4.061         c-5.877,2.774-12.21,4.446-18.556,5.844c-1.722,0.379-3.535,0.737-5.224,0.232c-0.915-0.273-1.777-0.822-2.27-1.64         c-0.987-1.64-0.253-3.753,0.652-5.44c1.537-2.867,3.53-5.49,5.877-7.742C187.006,154.61,190.98,152.624,194.976,150.964z"/>
							
								<path style="fill:none;stroke:#000000;stroke-width:1.1253;stroke-linecap:round;stroke-linejoin:round;stroke-miterlimit:10;" d="         M207.038,149.484c-3.965,1.615-7.849,3.428-11.633,5.432"/>
							
								<path style="fill:none;stroke:#000000;stroke-width:1.1253;stroke-linecap:round;stroke-linejoin:round;stroke-miterlimit:10;" d="         M210.158,152.927c-4.798,1.376-9.466,3.208-13.921,5.461"/>
							
								<path style="fill:none;stroke:#000000;stroke-width:1.1253;stroke-linecap:round;stroke-linejoin:round;stroke-miterlimit:10;" d="         M211.042,157.478c-4.763,1.998-9.525,3.995-14.287,5.993"/>
						</g>
						<path style="fill:#F7AC81;" d="M192.519,146.405c0.555-0.604,1.385-1.261,2.101-0.86c0.494,0.277,0.624,0.93,0.609,1.496        c-0.056,2.193-1.436,4.108-2.843,5.791c-1.071,1.282-2.192,2.522-3.359,3.716c-0.779,0.797-1.645,1.611-2.739,1.824        c-0.905,0.177-2.704-0.269-3.012-1.32c-0.286-0.974,1.859-2.609,2.515-3.323C188.033,151.289,190.276,148.847,192.519,146.405        z"/>
					</g>
					
						<path style="fill:none;stroke:#000000;stroke-width:1.1253;stroke-linecap:round;stroke-linejoin:round;stroke-miterlimit:10;" d="       M194.919,145.864c-0.965-0.357-2.074-0.07-2.933,0.498c-0.858,0.568-1.515,1.386-2.157,2.19       c-1.392,1.745-2.784,3.489-4.176,5.234c-1.161,1.455-1.862,2.36-3.846,2.41c-5.264,0.133-10.529,0.266-15.793,0.4       c-3.49,0.088-6.98,0.177-10.47,0.265"/>
				</g>
			</g>
		</g>
		<g>
			<path style="fill:#FF770B;" d="M31.366,50.334c-7.588,0.33-14.939,5.412-17.291,12.635c-2.351,7.222,0.965,16.051,7.791,19.382     c2.639,1.287,5.594,1.761,8.345,2.786c2.751,1.026,5.474,2.836,6.379,5.628c0.715,2.209,0.167,4.598,0.085,6.919     c-0.082,2.32,0.571,5.012,2.673,5.997c2.826,1.324,5.968-1.402,7.201-4.268c3.158-7.34-0.691-16.896-8.055-19.999     c-2.304-0.971-4.816-1.36-7.141-2.278c-2.326-0.918-4.584-2.559-5.263-4.965c-0.83-2.941,1.163-6.216,4.001-7.35     c2.838-1.134,6.19-0.384,8.684,1.383c3.329,2.358,6.535,6.974,11.114,4.503c3.293-1.777,4.53-6.898,3.027-10.218     C50.102,54.269,37.42,50.071,31.366,50.334z"/>
			<path style="fill:#FF770B;" d="M31.907,116.003c-0.702,2.377-0.124,5.12,1.342,7.025c1.466,1.904,3.742,2.965,6.004,2.972     c1.095,0.004,2.232-0.246,3.097-0.988c0.999-0.856,1.505-2.267,1.626-3.657C44.56,114.659,34.415,107.512,31.907,116.003z"/>
			
				<path style="fill:none;stroke:#FFFFFF;stroke-width:1.1253;stroke-linecap:round;stroke-linejoin:round;stroke-miterlimit:10;" d="     M14.046,61.223c3.931,2.509,9.191,2.779,13.357,0.684s7.088-6.477,7.419-11.129"/>
			
				<path style="fill:none;stroke:#FFFFFF;stroke-width:1.1253;stroke-linecap:round;stroke-linejoin:round;stroke-miterlimit:10;" d="     M39.118,80.31c-1.65,3.252-1.65,7.29,0,10.542c1.65,3.252,4.909,5.637,8.507,6.226"/>
			
				<path style="fill:none;stroke:#FFFFFF;stroke-width:1.1253;stroke-linecap:round;stroke-linejoin:round;stroke-miterlimit:10;" d="     M49.853,70.182c-3.145-2.922-5.288-6.904-5.995-11.139c-0.304-1.822-0.212-3.995,1.261-5.109"/>
			
				<path style="fill:none;stroke:#FFFFFF;stroke-width:1.1253;stroke-linecap:round;stroke-linejoin:round;stroke-miterlimit:10;" d="     M31.983,115.255c0.472,1.589,1.422,3.061,2.785,4.005c1.363,0.943,3.151,1.311,4.733,0.817c1.582-0.494,2.884-1.902,3.096-3.546"/>
		</g>
	</g>
	<g>
		<ellipse style="fill:#200026;" cx="367.5" cy="477.5" rx="105.5" ry="10.5"/>
		<g>
			<g>
				<g>
					<polygon style="fill:#F7AC81;" points="325.506,367.809 325.506,445.729 346.757,448.09 353.841,364.267      "/>
					<g>
						<path style="fill:#200026;" d="M325.575,384.909c8.123,0.392,16.247,0.783,24.37,1.175c1.576,0.076,3.275,0.12,4.586-0.758        c2.017-1.351,2.223-4.218,1.95-6.631c-0.504-4.456,0.691-8.299,1.089-12.733c0.465-5.194,0.947-10.387,1.447-15.577        c0.998-10.382,2.064-20.757,3.197-31.125c2.267-20.736,4.803-41.442,7.609-62.112c0.056-0.413,0.112-0.827,0.169-1.24        c1.084-7.958,2.082-16.609-1.976-23.54c-4.4-7.516-14.1-10.904-22.677-9.388c-7.595,1.342-18.327,7.197-21.006,14.86        c-3.385,9.683-2.406,23.691-3.064,33.929c-1.225,19.071-1.491,38.203-0.797,57.3c0.676,18.607-1.371,36.949,0.768,55.632        C322.684,384.77,324.129,384.839,325.575,384.909z"/>
						
							<path style="fill:none;stroke:#FFFFFF;stroke-width:1.1806;stroke-linecap:round;stroke-linejoin:round;stroke-miterlimit:10;" d="        M322.569,255.133c4.941-3.135,9.025-7.605,11.703-12.808"/>
						
							<path style="fill:none;stroke:#FFFFFF;stroke-width:1.1806;stroke-linecap:round;stroke-linejoin:round;stroke-miterlimit:10;" d="        M321.295,378.353c11.508,0.756,23.067,0.751,34.574-0.015"/>
						
							<path style="fill:none;stroke:#FFFFFF;stroke-width:1.1806;stroke-linecap:round;stroke-linejoin:round;stroke-miterlimit:10;" d="        M337.443,348.048c1.156,3.666,1.045,7.719-0.31,11.316c-1.355,3.597-3.945,6.716-7.232,8.709"/>
					</g>
				</g>
				<g>
					<path style="fill:#FF770B;" d="M350.715,478.618c-0.115-11.36-1.174-22.748-3.115-33.942       c-7.495,0.043-14.995-0.824-22.282-2.576c-6.978,10.032-16.216,18.78-26.836,24.826c-1.454,0.828-2.956,1.628-4.143,2.809       c-1.186,1.181-2.032,2.833-1.815,4.492c0.224,1.707,1.538,3.116,3.07,3.901c1.532,0.785,3.271,1.047,4.978,1.275       C317.193,481.619,334.273,481.903,350.715,478.618z"/>
					
						<path style="fill:none;stroke:#000000;stroke-width:1.0309;stroke-linecap:round;stroke-linejoin:round;stroke-miterlimit:10;" d="       M320.433,447.219c-0.903-2.268-2.593-4.308-4.868-5.197c-2.274-0.889-5.134-0.415-6.703,1.455       c-1.569,1.871-1.367,5.094,0.652,6.468c1.781,1.212,4.164,0.761,6.259,0.262c3.422-0.814,6.845-1.627,10.267-2.441       c1.608-0.382,3.263-0.767,4.899-0.528c1.636,0.239,3.269,1.251,3.742,2.835c0.545,1.824-0.693,3.859-2.44,4.615       c-1.747,0.756-3.811,0.427-5.514-0.424c-1.703-0.851-3.116-2.173-4.504-3.476c-0.518-0.487-1.036-0.973-1.554-1.46"/>
					
						<path style="fill:none;stroke:#000000;stroke-width:1.0309;stroke-linecap:round;stroke-linejoin:round;stroke-miterlimit:10;" d="       M312.752,455.851c3.697,0.482,7.189,2.396,9.584,5.253"/>
					
						<path style="fill:none;stroke:#000000;stroke-width:1.0309;stroke-linecap:round;stroke-linejoin:round;stroke-miterlimit:10;" d="       M307.677,462.034c2.985-0.287,6.069,1.316,7.549,3.924"/>
					
						<path style="fill:none;stroke:#000000;stroke-width:1.0309;stroke-linecap:round;stroke-linejoin:round;stroke-miterlimit:10;" d="       M293.147,471.774c3.094,3.532,7.808,5.313,12.479,5.789c4.671,0.476,9.374-0.221,14.018-0.915       c10.374-1.552,20.747-3.104,31.121-4.655"/>
				</g>
			</g>
			<g>
				<g>
					<polygon style="fill:#F7AC81;" points="388.078,370.17 404.607,451.632 425.858,449.271 417.594,359.545      "/>
					<g>
						<path style="fill:#200026;" d="M385.507,373.338c0.613,2.757,1.238,5.508,1.879,8.253c0.345,1.478,0.846,3.117,2.188,3.825        c1.087,0.574,2.405,0.355,3.612,0.121c10.895-2.108,21.79-4.215,32.685-6.323c0.544-0.105-15.892-110.687-17.228-120.87        c-0.055-0.416-0.109-0.832-0.164-1.247c-0.999-7.634-2.1-15.599-6.484-21.928c-6.013-8.683-18.132-12.553-28.065-8.964        c-7.106,2.568-14.918,10.248-15.209,18.255c-0.249,6.831,4.849,14.607,6.017,21.471c3.895,22.882,8.016,45.713,12.649,68.458        C380.033,347.384,382.634,360.416,385.507,373.338z"/>
						
							<path style="fill:none;stroke:#FFFFFF;stroke-width:1.1806;stroke-linecap:round;stroke-linejoin:round;stroke-miterlimit:10;" d="        M397.566,245.391c1.275,5.892,5.262,11.139,10.596,13.947"/>
						
							<path style="fill:none;stroke:#FFFFFF;stroke-width:1.1806;stroke-linecap:round;stroke-linejoin:round;stroke-miterlimit:10;" d="        M366.642,279.194c-1.193-7.838-3.008-15.58-5.422-23.132"/>
						
							<path style="fill:none;stroke:#FFFFFF;stroke-width:1.1806;stroke-linecap:round;stroke-linejoin:round;stroke-miterlimit:10;" d="        M387.404,379.004c13.12,0.036,26.239-2.925,38.072-8.591"/>
						
							<path style="fill:none;stroke:#FFFFFF;stroke-width:1.1806;stroke-linecap:round;stroke-linejoin:round;stroke-miterlimit:10;" d="        M395.934,346.825c3.329,4.184,4.063,10.273,1.823,15.128"/>
					</g>
				</g>
				<g>
					<path style="fill:#FF770B;" d="M432.968,473.552c-2.128-10.067-4.256-20.133-6.384-30.2c-7.369,2.453-15.067,3.913-22.822,4.33       c-7.506,9.979-17.049,19.041-27.253,26.237c-1.596,1.126-1.08,4.478,0.444,5.7c1.524,1.222,3.599,1.437,5.548,1.568       c16.908,1.134,33.994-0.424,50.418-4.597C432.812,475.574,433.179,474.552,432.968,473.552z"/>
					
						<path style="fill:none;stroke:#000000;stroke-width:1.0309;stroke-linecap:round;stroke-linejoin:round;stroke-miterlimit:10;" d="       M393.064,449.086c-1.465,0.259-2.807,1.334-3.193,2.771c-0.385,1.437,0.345,3.146,1.727,3.697       c1.301,0.519,2.763-0.003,4.057-0.54c3.494-1.451,7.11-3.066,10.884-2.801c1.345,0.095,2.86,0.586,3.361,1.837       c0.406,1.012-0.052,2.241-0.917,2.905c-0.865,0.663-2.046,0.815-3.115,0.6c-2.495-0.502-4.824-2.538-6.198-4.605       C398.194,450.727,395.981,448.569,393.064,449.086z"/>
					
						<path style="fill:none;stroke:#000000;stroke-width:1.0309;stroke-linecap:round;stroke-linejoin:round;stroke-miterlimit:10;" d="       M376.891,474.352c5.499,3.243,12.313,2.92,18.684,2.499c12.456-0.824,25.111-1.689,36.834-5.98"/>
					
						<path style="fill:none;stroke:#000000;stroke-width:1.0309;stroke-linecap:round;stroke-linejoin:round;stroke-miterlimit:10;" d="       M391.957,459.309c2.089-0.136,4.203,0.116,6.202,0.739c0.232,0.073,0.47,0.154,0.654,0.313c0.184,0.16,0.303,0.418,0.231,0.651       "/>
					
						<path style="fill:none;stroke:#000000;stroke-width:1.0309;stroke-linecap:round;stroke-linejoin:round;stroke-miterlimit:10;" d="       M386.143,464.091c3.143-0.227,6.357,0.707,8.889,2.584"/>
				</g>
			</g>
			<g>
				<path style="fill:#F7AC81;" d="M338.55,179.117c-1.33,3.161-2.801,6.358-5.222,8.786c-2.421,2.429-6.003,3.972-9.321,3.107      c-2.74-0.714-4.894-2.967-6.057-5.549c-1.163-2.582-1.452-5.471-1.478-8.303c-0.132-14.881,6.901-31.569,20.855-38.352      c1.649-0.801,3.396-1.467,5.222-1.621c1.827-0.154,3.753,0.25,5.182,1.397c1.46,1.173,2.27,3.012,2.534,4.866      c0.265,1.854,0.037,3.742-0.262,5.59c-0.864,5.336-2.332,10.573-4.357,15.584C343.617,169.649,340.635,174.163,338.55,179.117z"/>
				<g>
					<path style="fill:#FF770B;" d="M318.091,156.417c-1.053,2.448-1.894,4.98-2.499,7.558c7.982-1.882,16.18-2.846,24.382-2.867       c0.601,0,3.339-7.345,3.727-8.198c1.115-2.453,2.267-4.811,3.552-7.154c1.682-3.066,4.522-6.249,5.734-9.482       c1.121-2.989-3.957-4.421-6.457-4.422c-2.585-0.001-5.092,0.891-7.416,2.022C329.685,138.464,322.237,146.784,318.091,156.417z       "/>
					
						<path style="fill:none;stroke:#000000;stroke-width:1.0309;stroke-linecap:round;stroke-linejoin:round;stroke-miterlimit:10;" d="       M316.944,158.982c5.422-2.174,11.37-3.023,17.184-2.454"/>
				</g>
			</g>
			<g>
				<path style="fill:#FF770B;" d="M332.347,178.11c0.341,5.41,1.41,10.742,1.805,16.146c0.402,5.499-1.527,9.878-3.191,15.092      c-3.491,10.942-6.981,21.883-10.472,32.825c14.465,2.304,28.966,4.611,43.596,5.315c14.631,0.705,29.46-0.224,43.532-4.29      c0.163-14-7.124-26.953-9.577-40.737c-1.263-7.097-1.213-14.421,0.113-21.505c1.356-7.246,2.506-14.315,3.677-21.638      c0.868-5.43,1.743-11.298-0.787-16.18c-1.741-3.359-4.885-5.768-8.156-7.669c-7.59-4.411-16.431-6.561-25.194-6.35      c-4.283,0.103-8.482,0.994-12.686,1.566c-9.152,1.247-14.321,11.765-17.632,19.354      C333.54,158.831,331.743,168.528,332.347,178.11z"/>
				
					<path style="fill:none;stroke:#FFFFFF;stroke-width:1.1806;stroke-linecap:round;stroke-linejoin:round;stroke-miterlimit:10;" d="      M334.309,204.074c0.97-3.602,5.407-5.247,9.086-4.628c3.679,0.619,6.853,2.83,10.14,4.594c3.288,1.764,7.169,3.132,10.698,1.922      c4.13-1.417,6.725-6.029,11.011-6.864c2.82-0.549,5.662,0.702,8.164,2.114c2.502,1.412,4.999,3.057,7.852,3.397      c2.853,0.34,6.188-1.17,6.736-3.99"/>
				
					<path style="fill:none;stroke:#FFFFFF;stroke-width:1.1806;stroke-linecap:round;stroke-linejoin:round;stroke-miterlimit:10;" d="      M333.425,187.706c4.438-3.276,11.11-3.078,15.346,0.454c2.204,1.838,3.848,4.484,6.523,5.521      c4.048,1.568,8.398-1.201,11.715-4.002c3.318-2.8,7.125-5.99,11.417-5.335c2.399,0.366,4.433,1.901,6.335,3.409      c1.902,1.507,3.886,3.086,6.265,3.566c2.379,0.48,5.258-0.554,5.996-2.866"/>
				
					<path style="fill:none;stroke:#000000;stroke-width:1.0309;stroke-linecap:round;stroke-linejoin:round;stroke-miterlimit:10;" d="      M322.542,236.245c20.8,5.845,42.649,7.935,64.18,6.137c7.198-0.601,14.648-1.738,20.626-5.793"/>
				
					<path style="fill:none;stroke:#000000;stroke-width:1.0309;stroke-linecap:round;stroke-linejoin:round;stroke-miterlimit:10;" d="      M333.18,161.793c1.105-6.025,4.845-15.252,8.54-20.138"/>
			</g>
			<g>
				<g>
					<path style="fill:#F7AC81;" d="M382.361,101.583c0.061,0.125,0.114,0.256,0.158,0.394c0.982,3.052,1.403,6.399,1.771,9.573       c0.764,6.594,0.746,13.247,0.724,19.875c-0.004,1.182-0.021,2.418-0.578,3.461c-0.813,1.522-2.555,2.257-4.176,2.848       c-2.476,0.904-5.002,1.742-7.622,2.026c-3.566,0.387-7.262-0.661-10.488-2.117c-0.829-0.374-2.415-0.687-2.776-1.59       c-0.206-0.516-0.172-1.092-0.13-1.646c0.805-10.67,3.475-21.624,10.315-29.853c1.826-2.196,4.086-4.253,6.888-4.808       C378.514,99.337,381.402,99.615,382.361,101.583z"/>
					<path style="fill:#F78681;" d="M373.205,130.289c-4.037,2.607-9.165,3.46-13.828,2.299c0.362-2.76,0.726-5.533,1.499-8.207       c0.191-0.661,0.425-1.344,0.923-1.819c0.771-0.735,1.948-0.781,3.012-0.799c4.325-0.075,8.759-0.427,12.822-2.023       c0.718-0.282,1.803-1.099,2.577-0.589c0.784,0.517,0.298,1.497,0.051,2.188c-0.611,1.708-1.486,3.321-2.578,4.769       C376.446,127.746,374.93,129.175,373.205,130.289z"/>
				</g>
				<g>
					<g>
						<path style="fill:#200026;" d="M338.961,111.275c-0.501,0.774-1.013,1.575-1.176,2.482c-0.163,0.907,0.111,1.958,0.894,2.446        c0.99,0.616,2.291,0.11,3.256-0.545c2.587-1.755,4.364-4.446,6.011-7.103c1.829-2.95,3.584-5.946,5.214-9.01        c0.544-1.022,1.083-2.084,1.191-3.237c0.107-1.152-0.315-2.429-1.312-3.015c-2.847-1.673-5.681,5.011-6.729,6.629        C343.861,103.706,341.411,107.491,338.961,111.275z"/>
						<path style="fill:#200026;" d="M350.184,74.324c-4.828,6.515-5.221,16.086-0.683,22.806c3.075,4.554,7.84,7.316,11.758,11.025        c1.661,1.573,2.694,3.576,4.627,4.959c1.906,1.363,4.153,2.242,6.43,2.753c9.438,2.119,19.946-1.667,25.863-9.319        c5.029-6.505,6.523-15.505,4.141-23.343c-2.275-7.485-9.382-13.69-16.568-16.382c-3.389-1.27-7.228-2.171-10.865-2.192        c-2.487-0.015-4.853,0.783-7.301,1.111C360.735,66.658,354.512,68.483,350.184,74.324z"/>
						<g>
							<path style="fill:#200026;" d="M404.93,73.63c-1.858,3.663-2.526,8.131-0.872,11.89c1.654,3.759,6.011,6.415,9.97,5.323         c3.773-1.04,6.055-4.879,7.26-8.603c0.771-2.383,1.267-4.904,0.98-7.393c-0.591-5.118-4.321-7.948-9.322-7.937         C409.161,66.919,406.497,70.539,404.93,73.63z"/>
							<path style="fill:#31003B;" d="M413.187,72.213c0.599-0.164,1.26-0.274,1.823-0.012c0.563,0.262,0.916,1.036,0.543,1.533         c-0.166,0.221-0.43,0.341-0.647,0.512c-0.217,0.172-0.397,0.458-0.293,0.714c0.108,0.265,0.442,0.336,0.725,0.374         c0.819,0.111,1.684,0.285,2.283,0.854c0.599,0.57,0.764,1.664,0.124,2.188c-0.394,0.323-1.089,0.541-0.982,1.039         c0.076,0.355,0.522,0.458,0.809,0.681c0.528,0.41,0.464,1.283,0.032,1.794c-0.432,0.51-1.107,0.737-1.756,0.896         c-1.777,0.436-3.636,0.538-5.45,0.3c-0.241-0.032-0.51-0.086-0.647-0.287c-0.283-0.416,0.241-0.903,0.691-1.126         c0.659-0.326,1.346-0.649,1.829-1.203c0.482-0.554,0.7-1.416,0.298-2.031c-0.547-0.836-1.808-0.756-2.634-1.318         C406.815,74.999,411.629,72.641,413.187,72.213z"/>
						</g>
					</g>
					<path style="fill:#F7AC81;" d="M372.673,71.216c-2.142-0.76-4.396-1.195-6.642-0.708c-2.025,0.439-3.867,1.598-5.512,2.96       c-7.335,6.072-9.785,16.421-11.935,25.306c-0.688,2.842-1.335,5.778-0.882,8.667c0.427,2.722,1.817,5.22,3.573,7.343       c4.276,5.171,9.929,8.961,16.608,10.056c4.406,0.723,9.188,0.018,12.797-2.864c1.981-1.581,3.516-3.73,4.853-5.967       c3.5-5.856,5.838-12.658,5.879-19.603c0.041-6.945-2.385-14.011-7.162-18.593c-0.692-0.664-1.428-1.273-2.193-1.834       c-2.316-1.696-4.858-2.851-7.436-3.982C373.985,71.716,373.335,71.451,372.673,71.216z"/>
					<g>
						<path d="M369.231,99.775c-0.086,0.309-0.209,0.626-0.456,0.831c-0.435,0.361-1.13,0.241-1.549-0.138        c-0.42-0.379-0.615-0.946-0.726-1.501c-0.126-0.629-0.162-1.296,0.058-1.899c0.22-0.603,0.737-1.126,1.373-1.209        C369.807,95.614,369.529,98.697,369.231,99.775z"/>
						<path d="M356.366,94.777c-0.121,0.38-0.307,0.753-0.613,1.009c-0.306,0.256-0.749,0.375-1.116,0.22        c-0.45-0.19-0.658-0.704-0.786-1.176c-0.184-0.679-0.297-1.403-0.116-2.083c0.211-0.79,1.163-1.837,2.026-1.257        C356.715,92.131,356.663,93.84,356.366,94.777z"/>
						
							<path style="fill:none;stroke:#000000;stroke-width:1.0309;stroke-linecap:round;stroke-linejoin:round;stroke-miterlimit:10;" d="        M360.96,95.692c-0.989,2.768-2.391,5.388-4.143,7.748c-0.243,0.328-0.508,0.727-0.373,1.112        c0.108,0.31,0.433,0.479,0.73,0.617c0.822,0.384,1.645,0.768,2.467,1.152"/>
						
							<path style="fill:none;stroke:#000000;stroke-width:1.0309;stroke-linecap:round;stroke-linejoin:round;stroke-miterlimit:10;" d="        M363.083,114.63c-1.488-2.227-3.969-3.764-6.626-4.105"/>
						
							<path style="fill:none;stroke:#000000;stroke-width:1.0309;stroke-linecap:round;stroke-linejoin:round;stroke-miterlimit:10;" d="        M373.872,92.79c-1.312,0.49-2.795,0.508-4.119,0.051c-1.324-0.457-2.479-1.387-3.21-2.583"/>
						
							<path style="fill:none;stroke:#000000;stroke-width:1.0309;stroke-linecap:round;stroke-linejoin:round;stroke-miterlimit:10;" d="        M358.951,88.561c-0.696-0.951-1.453-1.907-2.489-2.469c-1.036-0.562-2.424-0.635-3.324,0.126"/>
						<path style="fill:#F78681;" d="M377.154,107.302c0.333,1.229,0.025,2.021-0.743,3.037c-1.038,1.372-3.048,2.714-4.612,1.996        c-0.801-0.368-1.41-1.07-1.828-1.846c-0.521-0.968-0.779-2.098-0.601-3.183c0.178-1.085,0.82-2.111,1.784-2.641        C373.103,103.592,376.582,105.187,377.154,107.302z"/>
						<path style="fill:#F78681;" d="M354.305,101.852c0.279,1.49-0.677,3.111-2.115,3.589c-1.438,0.478-3.174-0.25-3.842-1.61        c-0.805-1.641-0.002-4.524,1.931-5.044C351.801,98.377,354.04,100.436,354.305,101.852z"/>
					</g>
					<g>
						<path style="fill:#200026;" d="M368.601,83.848c0.711,1.41,1.577,2.753,2.518,4.015c1.933,2.592,4.196,4.91,6.323,7.339        c1.951,2.228,3.682,4.69,6.082,6.485c2.418,1.809,5.513,2.918,8.478,2.347c3.061-0.589,5.614-2.941,6.886-5.787        s1.366-6.117,0.735-9.17c-0.63-3.052-1.946-5.921-3.414-8.67c-1.686-3.158-3.604-6.223-6.058-8.829        c-2.454-2.607-5.477-4.748-8.904-5.784c-2.024-0.612-4.194-0.828-6.267-0.411c-5.374,1.081-8.684,7.016-8.236,12.266        C366.929,79.819,367.617,81.897,368.601,83.848z"/>
						<path style="fill:#31003B;" d="M377.129,88.448c0.324,0.406,0.682,0.833,1.181,0.978c0.499,0.145,1.155-0.153,1.172-0.673        c0.023-0.701-1.002-1.014-1.132-1.703c-0.131-0.695,0.787-1.183,1.468-0.994c0.682,0.189,1.178,0.756,1.743,1.18        c0.565,0.424,1.386,0.707,1.955,0.287c0.553-0.408,0.546-1.216,0.559-1.904c0.013-0.687,0.238-1.533,0.912-1.67        c0.374-0.076,0.746,0.108,1.083,0.286c1.258,0.666,2.515,1.333,3.772,1.999c-1.871-3.6-4.241-6.94-7.021-9.895        c-0.618-0.657-1.599-1.335-2.328-0.804c-1.214,0.883,0.624,3.192-0.473,4.216c-0.508,0.474-1.353,0.3-1.919-0.102        c-0.566-0.403-0.985-0.987-1.559-1.377c-0.994-0.675-2.503-0.604-3.47,0.11c-0.982,0.725-0.814,1.505-0.464,2.591        C373.507,83.759,375.327,86.186,377.129,88.448z"/>
						<path style="fill:#31003B;" d="M392.546,83.8c0.302,0.503,0.647,1.022,1.18,1.266c0.533,0.243,1.297,0.067,1.476-0.491        c0.088-0.273,0.021-0.569,0.02-0.856c-0.001-0.287,0.106-0.619,0.378-0.711c0.254-0.085,0.533,0.091,0.669,0.322        c0.136,0.231,0.169,0.505,0.229,0.766c0.133,0.579,0.422,1.138,0.888,1.507s1.121,0.523,1.676,0.31        c0.769-0.295,1.156-1.204,1.106-2.026c-0.05-0.822-0.441-1.58-0.824-2.309c-0.828-1.579-1.657-3.158-2.485-4.737        c-0.222-0.423-0.457-0.861-0.842-1.143c-0.386-0.282-0.969-0.355-1.323-0.033c-0.409,0.372-0.32,1.021-0.251,1.569        c0.069,0.548-0.007,1.248-0.526,1.436c-0.293-0.782-0.603-1.59-1.193-2.18c-1.384-1.383-3.438-0.37-2.986,1.534        C390.192,79.943,391.536,82.118,392.546,83.8z"/>
					</g>
					<g>
						<path style="fill:#F7AC81;" d="M388.092,119.253c-7.063-1.042-4.818-10.663-2.277-14.799c1.648-2.683,4.574-6.161,8.112-4.881        c1.881,0.68,3.242,2.431,3.822,4.345c0.58,1.915,0.465,3.977,0.085,5.941c-0.475,2.449-1.39,4.878-3.067,6.724        C393.089,118.432,390.561,119.618,388.092,119.253z"/>
						
							<path style="fill:none;stroke:#000000;stroke-width:1.0309;stroke-linecap:round;stroke-linejoin:round;stroke-miterlimit:10;" d="        M390.496,104.207c0.464-0.573,1.405-0.552,2.002-0.118c0.597,0.434,0.907,1.16,1.089,1.875        c0.449,1.77,0.224,3.771-0.892,5.216c-1.116,1.445-3.203,2.17-4.878,1.442"/>
					</g>
					<path style="fill:#200026;" d="M379.335,125.211c-0.192,0.866-0.326,1.921,0.343,2.502c0.511,0.443,1.319,0.387,1.893,0.03       c0.574-0.357,0.955-0.952,1.265-1.553c1.213-2.35,1.61-5.022,1.99-7.639c0.833-5.743,1.666-11.486,2.499-17.228       c0.078-0.541,0.156-1.102-0.003-1.625c-0.244-0.808-1.234-1.306-1.979-0.771c-0.578,0.415-0.5,1.231-0.618,1.854       c-0.502,2.662-1.148,5.303-1.735,7.948C381.772,114.222,380.553,119.717,379.335,125.211z"/>
				</g>
			</g>
			<g>
				<path style="fill:#F7AC81;" d="M363.775,193.105c2.715,0.814,5.702,0.202,8.22-1.099c2.518-1.3,4.642-3.239,6.681-5.207      c5.022-4.847,9.726-10.014,14.212-15.358c4.083-4.864,8.956-9.547,10.673-15.842c0.904-3.315,0.945-7.119-1.059-9.91      c-2.749-3.828-8.499-4.38-12.832-2.527c-4.652,1.989-7.565,6.105-11.314,9.208c-4.146,3.431-7.725,8.13-10.747,12.552      c-3.423,5.008-6.191,10.501-7.902,16.331C358.298,186.06,357.723,191.291,363.775,193.105z"/>
				<g>
					<path style="fill:#FF770B;" d="M404.047,155.187c-1.339,8.702-7.449,16.771-13.764,22.636       c-0.147,0.136-0.324,0.281-0.522,0.251c-0.267-0.042-0.375-0.361-0.432-0.625c-2.034-9.46-7.089-18.246-14.244-24.761       c4.911-5.105,11.573-10.093,18.606-11.628c1.524-0.333,3.111-0.525,4.642-0.224       C404.003,141.951,404.756,150.578,404.047,155.187z"/>
					
						<path style="fill:none;stroke:#000000;stroke-width:1.0309;stroke-linecap:round;stroke-linejoin:round;stroke-miterlimit:10;" d="       M388.713,176.822c0.271,0.925,0.542,1.85,0.813,2.775c4.569-4.025,8.409-8.874,11.279-14.244"/>
					
						<path style="fill:none;stroke:#000000;stroke-width:1.0309;stroke-linecap:round;stroke-linejoin:round;stroke-miterlimit:10;" d="       M374.731,153.206c2.28-3.038,5.015-5.735,8.086-7.971"/>
					
						<path style="fill:none;stroke:#000000;stroke-width:1.0309;stroke-linecap:round;stroke-linejoin:round;stroke-miterlimit:10;" d="       M376.944,150.396c8.93,5.247,15.472,14.396,17.551,24.542"/>
				</g>
			</g>
			<g>
				<g>
					<path style="fill:#F7AC81;" d="M319.54,181.998c0.396,2.726,1.805,5.28,4.143,6.695c3.719,2.253,8.561,1.185,12.49-0.68       c6.55-3.109,13.012-6.156,19.423-9.529c4.755-2.501,9.51-5.002,14.264-7.503c3.723-1.959,7.965-3.916,9.628-8.091       c1.253-3.146,0.255-7.336-2.807-8.784c-2.049-0.97-4.455-0.563-6.675-0.105c-7.617,1.57-15.159,3.513-22.562,5.901       c-3.588,1.158-7.125,2.43-10.567,3.913c-3.433,1.479-6.912,2.553-10.047,4.672c-3.366,2.274-6.229,5.563-7.137,9.522       C319.395,179.306,319.347,180.672,319.54,181.998z"/>
					
						<path style="fill:none;stroke:#000000;stroke-width:1.0309;stroke-linecap:round;stroke-linejoin:round;stroke-miterlimit:10;" d="       M320.27,180.657c3.591-0.253,7.207,2.124,8.399,5.522"/>
					
						<path style="fill:none;stroke:#000000;stroke-width:1.0309;stroke-linecap:round;stroke-linejoin:round;stroke-miterlimit:10;" d="       M332.207,165.557c-2.908,1.141-5.355,3.412-6.71,6.227"/>
				</g>
				<g>
					<path style="fill:#F7AC81;" d="M384.198,172.224c-6.831,1.606-13.185-5.176-15.54-10.936c-0.466-1.14-0.822-2.425-0.415-3.587       c0.404-1.154,1.468-1.933,2.516-2.563c2.641-1.589,5.649-2.728,8.73-2.64c5.505,0.158,10.393,5.209,10.798,10.64       C390.581,167.096,388.061,171.316,384.198,172.224z"/>
					
						<path style="fill:none;stroke:#000000;stroke-width:1.0309;stroke-linecap:round;stroke-linejoin:round;stroke-miterlimit:10;" d="       M377.364,171.416c2.897,1.565,6.663,1.366,9.378-0.497"/>
					
						<path style="fill:none;stroke:#000000;stroke-width:1.0309;stroke-linecap:round;stroke-linejoin:round;stroke-miterlimit:10;" d="       M375.938,160.867c3.096,3.28,5.54,7.175,7.146,11.39"/>
					
						<path style="fill:none;stroke:#000000;stroke-width:1.0309;stroke-linecap:round;stroke-linejoin:round;stroke-miterlimit:10;" d="       M380.956,160.235c2.729,3.146,4.872,6.799,6.287,10.716"/>
					
						<path style="fill:none;stroke:#000000;stroke-width:1.0309;stroke-linecap:round;stroke-linejoin:round;stroke-miterlimit:10;" d="       M383.449,157.483c2.691,2.509,4.869,5.565,6.364,8.927"/>
				</g>
			</g>
			<g>
				<g>
					<path style="fill:#F7AC81;" d="M351.653,171.678c0.589,4.755,1.218,9.642,3.525,13.841c2.132,3.881,6.013,7.105,10.441,7.198       c4.066,0.085,7.968-2.476,9.977-6.011c5.361-9.437,0.312-22.923-4.64-32.776c-2.981-5.932-5.691-11.999-8.121-18.177       c-1.215-3.089-2.359-6.206-3.433-9.347c-0.908-2.657-1.408-4.415-4.247-5.486c-3.224-1.216-6.546,0.365-8.122,3.283       c-1.517,2.808-0.575,5.523-0.201,8.523c1.029,8.262,2.045,16.525,3.068,24.788       C350.484,162.235,351.068,166.957,351.653,171.678z"/>
					
						<path style="fill:none;stroke:#000000;stroke-width:1.0309;stroke-linecap:round;stroke-linejoin:round;stroke-miterlimit:10;" d="       M370.96,153.529c2.361,7.084,6.568,14.462,6.634,23.443"/>
					
						<path style="fill:none;stroke:#000000;stroke-width:1.0309;stroke-linecap:round;stroke-linejoin:round;stroke-miterlimit:10;" d="       M362.69,184.824c1.921-0.921,4.123-1.601,6.166-0.994c1.754,0.522,3.18,2.024,3.61,3.803"/>
					
						<path style="fill:none;stroke:#000000;stroke-width:1.0309;stroke-linecap:round;stroke-linejoin:round;stroke-miterlimit:10;" d="       M349.709,159.432c0.59,8.19,1.456,12.258,3.02,20.318"/>
				</g>
				<g>
					<path style="fill:#F7AC81;" d="M370.704,122.585c0.444,0.535,0.175,1.4-0.269,1.958c-0.865,1.086-1.532,1.92-2.78,2.563       c-1.363,0.703-2.841,1.183-4.118,2.05c-1.177,0.799-2.117,1.891-3.136,2.883c-2.585,2.515-5.753,4.427-9.184,5.542       c-1.747,0.567-3.721,0.913-5.369,0.103c-1.441-0.709-2.346-2.158-3.15-3.548c-1.121-1.939-2.194-3.905-3.219-5.896       c-0.374-0.726-0.748-1.477-0.83-2.289c-0.161-1.582,1.17-2.619,2.311-3.476c1.143-0.859,2.287-1.718,3.43-2.577       c0.773-0.58,1.567-1.185,2.042-2.027c0.924-1.636-0.316-3.436-0.784-5.029c-0.532-1.814-1.064-3.628-1.596-5.441       c-0.245-0.836-0.339-2.007,0.476-2.316c0.641-0.243,1.292,0.302,1.742,0.82c2.575,2.962,4.386,6.511,6.847,9.568       c2.359,2.929,5.938,6.003,9.715,6.722c2.02,0.385,4.103,0.287,6.144,0.037c0.583-0.072,1.258-0.126,1.671,0.292       C370.668,122.543,370.687,122.563,370.704,122.585z"/>
					
						<path style="fill:none;stroke:#000000;stroke-width:1.0309;stroke-linecap:round;stroke-linejoin:round;stroke-miterlimit:10;" d="       M347.637,106.851c2.621,5.104,5.511,10.495,10.52,13.293c3.748,2.094,8.311,2.44,12.508,1.532       c0.763,1.698-0.217,3.746-1.672,4.908c-1.454,1.162-3.292,1.702-4.994,2.456c-0.847,0.376-1.72,0.858-2.147,1.68       c-0.656,1.262-0.029,2.803,0.749,3.994c0.778,1.191,1.746,2.382,1.799,3.804"/>
					
						<path style="fill:none;stroke:#000000;stroke-width:1.0309;stroke-linecap:round;stroke-linejoin:round;stroke-miterlimit:10;" d="       M345.68,119.102c0.169,0.4,0.338,0.801,0.507,1.201"/>
					
						<path style="fill:none;stroke:#000000;stroke-width:1.0309;stroke-linecap:round;stroke-linejoin:round;stroke-miterlimit:10;" d="       M340.92,122.674c0.152,0.31,0.305,0.621,0.457,0.931"/>
					
						<path style="fill:none;stroke:#000000;stroke-width:1.0309;stroke-linecap:round;stroke-linejoin:round;stroke-miterlimit:10;" d="       M343.611,120.736c0.161,0.391,0.322,0.782,0.483,1.173"/>
				</g>
			</g>
		</g>
		<g>
			<path style="fill:#FF770B;" d="M436.691,76.784c-2.9-0.892-5.147-3.613-5.474-6.63c-0.271-2.506,0.714-5.053,2.355-6.966     c3.277-3.819,9.185-6.166,14.094-7.008c6.704-1.149,13.914,1.239,18.606,6.165s6.728,12.243,5.254,18.883     c-1.962,8.843-8.625,12.779-16.061,16.6c-3.143,1.615-6.217,3.667-8.039,6.694c-1.048,1.742-1.633,3.729-2.67,5.477     c-1.037,1.748-2.735,3.323-4.767,3.367c-2.262,0.049-4.192-1.882-4.858-4.044c-0.666-2.162-0.342-4.495,0.083-6.717     c0.986-5.154,2.901-10.75,7.544-13.194c2.674-1.407,5.836-1.518,8.675-2.552c3.364-1.225,6.3-3.938,7.193-7.406     c0.893-3.467-0.632-7.576-3.853-9.139c-3.546-1.72-6.878,0.503-9.085,3.18C443.465,76.193,440.31,77.896,436.691,76.784z"/>
			<path style="fill:#FF770B;" d="M427.544,126.39c0.102,3.079,2.066,6.022,4.871,7.297c1.727,0.785,3.777,0.945,5.527,0.214     c2.185-0.913,3.642-3.083,4.289-5.361c0.81-2.85,0.433-6.167-1.538-8.379C435.821,114.692,427.331,119.947,427.544,126.39z"/>
			
				<path style="fill:none;stroke:#FFFFFF;stroke-width:1.1806;stroke-linecap:round;stroke-linejoin:round;stroke-miterlimit:10;" d="     M437.261,95.631c0.747,1.135,2.013,1.845,3.323,2.207c3.384,0.936,7.171-0.309,9.658-2.788c2.486-2.479,3.731-6.04,3.785-9.551"/>
			
				<path style="fill:none;stroke:#FFFFFF;stroke-width:1.1806;stroke-linecap:round;stroke-linejoin:round;stroke-miterlimit:10;" d="     M467.88,88.43c-3.171-2.971-5.341-7.166-5.27-11.51c0.071-4.344,2.644-8.711,6.677-10.33"/>
			
				<path style="fill:none;stroke:#FFFFFF;stroke-width:1.1806;stroke-linecap:round;stroke-linejoin:round;stroke-miterlimit:10;" d="     M437.246,60.096c0.74,2.733,3.237,4.817,6.013,5.38c2.775,0.562,5.733-0.284,8.014-1.96c2.282-1.677,3.924-4.122,4.964-6.756"/>
		</g>
	</g>
</g>
</svg>