<?xml version="1.0" encoding="utf-8"?>
<!-- Generator: Adobe Illustrator 27.5.0, SVG Export Plug-In . SVG Version: 6.00 Build 0)  -->
<svg version="1.1" id="Layer_1" xmlns="http://www.w3.org/2000/svg" xmlns:xlink="http://www.w3.org/1999/xlink" x="0px" y="0px"
	 viewBox="0 0 2826.587 2000" style="enable-background:new 0 0 2826.587 2000;" xml:space="preserve">
<rect x="0" style="fill:#FFFFFF;" width="2826.587" height="2000"/>
<g>
	<g>
		<path style="fill:#DEEBE9;" d="M2246.934,1843.121c-241.138,26.611-170.814,13.448-678.431-14.4
			c-285.039-15.637-702.781,12.348-988.851,14.4c-208.557,1.497-377.641-135.771-377.641-303.254v-510.844v-533.63
			c0-167.482,169.438-313.104,377.641-303.252c193.354,9.148,478.98,28.709,775.445,6.532
			c352.599-26.376,546.498-32.131,891.837-6.532c207.683,15.395,377.643,135.771,377.643,303.252v1044.474
			C2624.576,1707.35,2453.558,1820.318,2246.934,1843.121z"/>
	</g>
	<g>
		<g style="opacity:0.6;">
			<path style="fill:#B2C9C6;" d="M1997.567,1381.686c0,0,300.915-727.436,495.235-638.368
				c194.321,89.068-309.644,442.768-390.532,657.305L1997.567,1381.686z"/>
		</g>
		<g>
			<g>
				<path style="fill:#9BBCB6;" d="M2046.544,1479.637c0,0,313.384-420.609,448.553-326.926
					c135.169,93.682-295.383,259.542-381.908,385.022L2046.544,1479.637z"/>
			</g>
			<g>
				<g>
					<path style="fill:#74A1BD;" d="M2089.084,1497.625c58.18-87.745,151.071-162.337,218.75-209.46
						c73.374-51.087,133.71-81.771,134.312-82.075l-1.9-3.753c-0.603,0.305-61.203,31.122-134.816,82.375
						c-67.98,47.333-161.305,122.289-219.85,210.588L2089.084,1497.625z"/>
				</g>
			</g>
		</g>
		<g>
			<g>
				<g>
					<path style="fill:#B2C9C6;" d="M840.058,584.519c-14.287,5.706-20.35,2.864-22.587-2.736
						c-2.236-5.6,0.201-11.837,14.488-17.543c26.027-10.394,42.655-5.279,42.655-5.279S866.464,573.973,840.058,584.519z"/>
				</g>
				<g>
					<path style="fill:#B2C9C6;" d="M824.417,682.979c-11.672,10.023-18.329,9.295-22.257,4.72
						c-3.928-4.575-3.64-11.265,8.032-21.288c21.263-18.257,38.651-18.797,38.651-18.797S845.989,664.456,824.417,682.979z"/>
				</g>
				<g>
					<g>
						<g>
							<path style="fill:#B2C9C6;" d="M779.36,938.56l-2.831-0.686c0.105-0.435,10.494-44.413,5.447-111.914
								c-4.661-62.282-23.79-157.902-88.475-259.751l2.458-1.562c65.041,102.41,84.259,198.581,88.928,261.226
								C789.951,893.794,779.466,938.119,779.36,938.56z"/>
						</g>
					</g>
					<g>
						<g>
							<path style="fill:#B2C9C6;" d="M755.852,689.928l-2.189-1.921c69.765-79.465,52.041-191.523,51.854-192.646l2.871-0.48
								C808.578,496.018,826.545,609.407,755.852,689.928z"/>
						</g>
					</g>
					<g>
						<g>
							<path style="fill:#B2C9C6;" d="M719.602,636.63c-29.24-4.446-49.113-22.445-49.339-22.653l1.971-2.142
								c0.252,0.232,25.726,23.254,61.151,22.862l0.033,2.912C728.626,637.662,724.005,637.3,719.602,636.63z"/>
						</g>
					</g>
					<g>
						<g>
							<path style="fill:#B2C9C6;" d="M784.365,872.964c-58.109-15.714-101.645-51.83-129.401-107.343
								c-0.962-1.922-1.87-3.739-2.169-4.085c0.004,0.004,0.091,0.104,0.272,0.195l1.324-2.591c0.766,0.391,1.168,1.16,3.176,5.179
								c27.371,54.737,70.286,90.344,127.557,105.832L784.365,872.964z"/>
						</g>
					</g>
					<g>
						<g>
							<path style="fill:#B2C9C6;" d="M705.468,829.255l-2.666-1.175c15.947-36.16-0.769-95.439-0.939-96.033l2.798-0.805
								c0.043,0.152,4.365,15.328,6.614,34.844C713.36,784.167,714.047,809.804,705.468,829.255z"/>
						</g>
					</g>
					<g>
						<g>
							<path style="fill:#B2C9C6;" d="M694.018,549.867c13.142,16.054,13.269,23.926,8.604,27.745
								c-4.667,3.819-12.358,2.141-25.5-13.914c-23.94-29.244-27.062-50.295-27.062-50.295S669.73,520.196,694.018,549.867z"/>
						</g>
					</g>
					<g>
						<g>
							<path style="fill:#B2C9C6;" d="M679.399,605.844c17.371,11.346,19.865,18.812,16.568,23.861
								c-3.297,5.048-11.137,5.767-28.508-5.577c-31.644-20.666-40.968-39.795-40.968-39.795S647.293,584.878,679.399,605.844z"/>
						</g>
					</g>
					<g>
						<g>
							<path style="fill:#B2C9C6;" d="M711.866,723.986c4.912,14.58,1.741,20.477-3.974,22.403
								c-5.714,1.924-11.808-0.852-16.72-15.431c-8.947-26.558-2.925-42.88-2.925-42.88S702.788,697.04,711.866,723.986z"/>
						</g>
					</g>
					<g>
						<g>
							<path style="fill:#B2C9C6;" d="M756.016,595.25c1.217,15.336-3.294,20.285-9.304,20.762
								c-6.011,0.477-11.246-3.698-12.464-19.034c-2.217-27.938,7.594-42.304,7.594-42.304S753.766,566.905,756.016,595.25z"/>
						</g>
					</g>
					<g>
						<g>
							<path style="fill:#B2C9C6;" d="M745.864,819.794c-3.142,15.06-8.862,18.542-14.765,17.31
								c-5.902-1.232-9.753-6.71-6.611-21.771c5.724-27.434,19.178-38.464,19.178-38.464S751.671,791.96,745.864,819.794z"/>
						</g>
					</g>
					<g>
						<g>
							<path style="fill:#B2C9C6;" d="M668.358,765.025c7.919,13.19,6.085,19.629,0.914,22.733
								c-5.169,3.104-11.716,1.697-19.635-11.493c-14.427-24.026-12.039-41.26-12.039-41.26S653.721,740.648,668.358,765.025z"/>
						</g>
					</g>
					<g>
						<g>
							<path style="fill:#B2C9C6;" d="M816.231,484.144c1.748,20.673-2.604,27.234-8.612,27.742
								c-6.008,0.508-11.4-5.229-13.146-25.903c-3.184-37.659,6.156-56.781,6.156-56.781S813,445.935,816.231,484.144z"/>
						</g>
					</g>
				</g>
			</g>
		</g>
		<g>
			<path style="fill:#B2C9C6;" d="M1102.802,1384.348c0,0-139.114-588.797-297.464-545.046
				c-158.351,43.75,180.638,373.891,215.704,546.577L1102.802,1384.348z"/>
		</g>
		<g>
			<g>
				<path style="fill:#9BBCB6;" d="M987.425,1272.817c0,0-258.693-545.857-432.522-470.659
					c-173.829,75.198,269.905,327.672,339.213,488.942L987.425,1272.817z"/>
			</g>
			<g>
				<g>
					<path style="fill:#74A1BD;" d="M935.318,1283.504c-45.841-112.245-133.852-217.493-199.612-286.018
						c-71.293-74.289-132.48-122.589-133.09-123.069l2.993-3.809c0.613,0.481,62.068,48.992,133.593,123.525
						c66.051,68.829,154.471,174.586,200.599,287.539L935.318,1283.504z"/>
				</g>
			</g>
		</g>
		<g>
			<g>
				<g>
					<path style="fill:#CFD3A3;" d="M962.379,1584.89c-59.064-14.763-128.582-29.622-200.003-43.997
						c-5.607-13.271-6.986-24.125-6.986-24.125c-33.915-56.05-27.751-47.443-131.736-52.655
						c-74.583-3.775-68.487-68.824-88.41-121.508c-0.356-0.961-0.733-1.918-1.109-2.874c-7.852-19.611-19.658-37.291-41.056-49.134
						c-22.701-12.547-45.093-28.916-63.78-47.225c-1.555-1.511-3.083-3.045-4.585-4.604c-36.702-37.798-56.939-82.868-32.156-118.99
						c0.582-0.857,1.191-1.708,1.828-2.543c4.45-5.895,10.145-11.543,17.211-16.858c73.656-55.354,126.717-17.456,192.007,8.677
						c36.101,14.442,100.464-20.929,158.143-31.524c0.824-0.154,1.655-0.297,2.478-0.442c45.657-7.834,86.781,0.642,105.824,62.831
						c-0.002,0.01,0.007,0.012,0.005,0.022c0.389,1.262,0.778,2.515,1.163,3.745c42.972,137.19,87.994,101.704,182.478,146.993
						c17.57,8.435,33.193,16.889,41.947,29.275C1177.272,1435.405,1079.119,1546.635,962.379,1584.89z"/>
				</g>
			</g>
			<g>
				<g>
					<g>
						<path style="fill:#C4C695;" d="M998.089,1468.808l4.616-3.782c-1.666-2.035-171.84-205.313-609.222-348.085l-1.853,5.676
							C827.369,1264.854,996.429,1466.784,998.089,1468.808z"/>
					</g>
				</g>
				<g>
					<g>
						<path style="fill:#C4C695;" d="M775.189,1216.285c73.826-34.816,96.534-73.251,97.464-74.869l-5.172-2.977
							c-0.22,0.381-22.9,38.522-94.842,72.448L775.189,1216.285z"/>
					</g>
				</g>
				<g>
					<g>
						<path style="fill:#C4C695;" d="M746.581,1274.924c24.973-23.86,35.896-65.781,31.588-121.231
							c-3.225-41.525-13.924-76.546-14.031-76.894l-5.702,1.759c0.422,1.365,41.443,137.189-15.981,192.054L746.581,1274.924z"/>
					</g>
				</g>
				<g>
					<g>
						<path style="fill:#C4C695;" d="M633.644,1230.12c8.654-3.707,13.524-6.344,13.745-6.466l-2.886-5.224
							c-1.02,0.565-103.609,55.989-218.846,17.512l-1.888,5.658C516.624,1272.606,601.399,1243.933,633.644,1230.12z"/>
					</g>
				</g>
				<g>
					<g>
						<path style="fill:#C4C695;" d="M536.772,1345.115c35.442-21.628,51.913-48.938,59.488-68.039
							c8.247-20.792,8.053-36.321,8.043-36.973l-5.97,0.109c0.009,0.598,0.221,60.211-64.674,99.809L536.772,1345.115z"/>
					</g>
				</g>
			</g>
		</g>
		<g>
			<path style="fill:#B2C9C6;" d="M2323.078,696.147c11.098-16.547,19.656-17.944,26.141-13.594
				c6.486,4.349,8.444,12.797-2.653,29.345c-20.215,30.144-41.729,36.838-41.729,36.838S2302.568,726.73,2323.078,696.147z"/>
		</g>
		<g>
			<path style="fill:#B2C9C6;" d="M2549.484,1271.827c21.152-1.137,27.805,5.246,28.25,13.536
				c0.445,8.29-5.485,15.349-26.637,16.485c-38.531,2.071-57.96-11.939-57.96-11.939S2510.391,1273.927,2549.484,1271.827z"/>
		</g>
		<g>
			<path style="fill:#B2C9C6;" d="M411.666,911.975c-16.711-11.996-17.871-20.874-13.169-27.423
				c4.701-6.55,13.484-8.292,30.195,3.704c30.442,21.851,36.642,44.272,36.642,44.272S442.551,934.145,411.666,911.975z"/>
		</g>
	</g>
	<g>
		<g>
			<path style="fill:#BED5DC;" d="M2483.38,1637.171c0,63.676-478.488,115.297-1068.732,115.297
				c-590.247,0-1068.733-51.62-1068.733-115.297c0-63.678,478.487-115.299,1068.733-115.299
				C2004.892,1521.872,2483.38,1573.493,2483.38,1637.171z"/>
		</g>
		<g>
			<path style="fill:#42428E;" d="M493.091,1653.552l-0.715-1.22c0.075-0.054,7.436-5.579,8.451-12.019
				c0.351-2.235-0.115-4.353-1.391-6.29c-0.889-1.351-1.96-2.008-3.276-2.008c0,0-0.042,0-0.063,0
				c-6.384,0.102-15.64,14.917-15.733,15.067l-1.682,2.715l0.51-3.258c0.021-0.132,2.017-13.228-2.046-17.139
				c-1.265-1.217-3.069-1.39-5.362-0.511c-2.411,0.923-4.086,2.615-4.98,5.03c-2.666,7.199,2.208,18.59,2.257,18.704l-1.167,0.639
				c-0.213-0.488-5.18-12.092-2.29-19.901c1.042-2.819,2.981-4.788,5.762-5.854c2.757-1.056,4.988-0.793,6.625,0.785
				c3.384,3.257,3.192,11.347,2.809,15.678c2.988-4.345,9.821-13.327,15.279-13.413c1.775-0.017,3.25,0.847,4.403,2.597
				c1.495,2.275,2.042,4.771,1.623,7.417C500.989,1647.629,493.413,1653.312,493.091,1653.552z"/>
		</g>
		<g>
			<path style="fill:#42428E;" d="M2214.345,1686.296c-0.321-4.217-1.696-7.225-4.091-8.937c-5.252-3.755-13.772-0.307-13.86-0.272
				l-2.962,1.223l2.119-2.63c0.06-0.076,6.115-7.671,4.87-13.176c-0.472-2.088-2.004-3.656-4.551-4.66
				c-10.743-4.236-19.532,20.348-19.958,21.568c-0.009,0.027-0.018,0.046-0.02,0.056l-1.447-0.64c0,0,0.008-0.023,0.012-0.04
				c0.148-0.436,1.752-5.412-0.208-8.832c-1.202-2.098-3.549-3.254-6.976-3.437c-3.202-0.172-5.421,0.673-6.587,2.506
				c-2.246,3.529-0.098,9.732-0.076,9.795l-1.445,0.646c-0.103-0.291-2.483-7.143,0.252-11.453c1.492-2.351,4.147-3.445,7.928-3.24
				c3.963,0.213,6.725,1.639,8.213,4.244c0.742,1.296,1.076,2.733,1.179,4.115c3.52-7.808,10.773-20.437,19.643-16.939
				c3.072,1.211,4.938,3.191,5.545,5.883c1.005,4.456-1.776,9.687-3.659,12.581c3.147-0.846,8.723-1.701,12.818,1.228
				c2.825,2.021,4.441,5.473,4.803,10.264L2214.345,1686.296z"/>
		</g>
		<g>
			<path style="fill:#42428E;" d="M1653.372,1652.442c-0.546-0.368-13.347-9.106-13.347-16.77c0-2.365,1.177-4.358,3.498-5.926
				c2.552-1.726,5.204-2.14,7.887-1.233c6.482,2.199,11.168,11.448,12.413,14.137c6.601-4.409,11.514-5.479,14.611-3.178
				c4.425,3.289,3.325,12.077,3.276,12.45l-1.286-0.213c0.011-0.083,1.029-8.247-2.708-11.02c-2.734-2.025-7.384-0.81-13.819,3.616
				l-0.617,0.423l-0.31-0.734c-0.05-0.117-5.044-11.75-11.937-14.084c-2.312-0.782-4.616-0.417-6.841,1.086
				c-1.929,1.303-2.867,2.832-2.867,4.675c0,6.846,12.591,15.433,12.716,15.519L1653.372,1652.442z"/>
		</g>
		<g>
			<path style="fill:#42428E;" d="M1319.366,1715.817c-0.051-0.057-5.132-5.91-9.288-13.299
				c-5.672-10.085-7.023-18.091-4.016-23.796c1.123-2.127,2.481-3.097,4.007-2.911c5.203,0.668,10.901,15.881,13.85,24.943
				c-0.977-11.32-2.09-33.7,3.425-41.267c1.2-1.649,2.666-2.543,4.355-2.657c1.648-0.124,2.995,0.55,4.015,1.969
				c4.972,6.917,0.478,31.355-1.992,42.79c1.842-3.354,4.456-7.093,7.126-7.521c1.267-0.202,2.27,0.328,2.834,1.494
				c1.611,3.324-0.613,11.797-7.124,20.225l-0.981-0.958c6.402-8.284,8.158-16.108,6.965-18.57c-0.304-0.627-0.784-0.858-1.51-0.746
				c-3.436,0.551-7.444,8.926-8.7,12.106l-1.22-0.492c0.097-0.39,9.596-39.057,3.591-47.411c-0.75-1.044-1.71-1.507-2.927-1.428
				c-1.329,0.09-2.452,0.784-3.427,2.123c-6.983,9.584-2.511,46.439-2.465,46.811l-1.262,0.323
				c-2.317-8.195-9.474-29.611-14.701-30.282c-0.996-0.125-1.894,0.593-2.744,2.205c-6.597,12.512,12.917,35.1,13.114,35.328
				L1319.366,1715.817z"/>
		</g>
		<g>
			<g>
				<path style="fill:#BED5DC;" d="M905.031,1677.395c0,0-19.299-22.11-12.658-34.703c6.641-12.593,17.846,27.051,17.846,27.051
					s-5.81-46.878,6.226-47.691c12.036-0.814,0,47.691,0,47.691s4.462-11.31,8.819-12.01c4.358-0.699,3.113,9.591-4.669,19.661
					H905.031z"/>
			</g>
			<g>
				<path style="fill:#42428E;" d="M906.414,1677.95c-0.909-1.041-22.181-25.682-14.461-40.322c1.22-2.313,2.682-3.38,4.356-3.163
					c3.329,0.426,7.239,6.333,11.622,17.556c1.335,3.418,2.516,6.835,3.443,9.661c-1.063-12.271-2.297-36.715,3.714-44.964
					c1.305-1.792,2.898-2.764,4.732-2.888c1.794-0.116,3.258,0.599,4.365,2.139c5.405,7.519,0.519,34.085-2.166,46.514
					c2.003-3.645,4.844-7.709,7.747-8.176c1.373-0.217,2.466,0.356,3.081,1.623c1.751,3.614-0.667,12.824-7.745,21.984l-1.066-1.04
					c6.958-9.005,8.868-17.509,7.57-20.185c-0.33-0.68-0.852-0.942-1.641-0.811c-3.735,0.6-8.093,9.701-9.458,13.158l-1.326-0.534
					c0.027-0.108,2.664-10.792,4.434-22.491c2.315-15.299,2.132-25.341-0.53-29.044c-0.816-1.135-1.857-1.651-3.181-1.552
					c-1.446,0.097-2.664,0.851-3.725,2.308c-7.59,10.416-2.729,50.481-2.68,50.884l-1.372,0.35
					c-2.518-8.909-10.299-32.187-15.981-32.916c-1.089-0.144-2.057,0.646-2.982,2.398c-7.172,13.601,14.039,38.155,14.254,38.401
					L906.414,1677.95z"/>
			</g>
		</g>
		<g>
			<g>
				<path style="fill:#BED5DC;" d="M1842.408,1576.849c0,0-19.299-22.11-12.658-34.703c6.641-12.593,17.846,27.051,17.846,27.051
					s-5.81-46.878,6.226-47.691c12.036-0.815,0,47.691,0,47.691s4.462-11.31,8.819-12.01c4.358-0.699,3.113,9.591-4.669,19.661
					H1842.408z"/>
			</g>
			<g>
				<path style="fill:#42428E;" d="M1843.791,1577.405c-0.909-1.041-22.181-25.682-14.461-40.322c1.22-2.313,2.682-3.38,4.356-3.163
					c3.329,0.426,7.239,6.334,11.622,17.556c1.335,3.418,2.516,6.835,3.443,9.661c-1.063-12.271-2.297-36.715,3.714-44.964
					c1.305-1.792,2.898-2.764,4.732-2.887c1.794-0.116,3.258,0.599,4.365,2.139c5.405,7.519,0.519,34.085-2.166,46.514
					c2.003-3.645,4.844-7.709,7.747-8.176c1.373-0.217,2.466,0.357,3.081,1.623c1.751,3.614-0.667,12.824-7.745,21.985l-1.066-1.04
					c6.958-9.005,8.868-17.509,7.57-20.185c-0.33-0.68-0.852-0.942-1.641-0.811c-3.734,0.6-8.093,9.701-9.458,13.158l-1.326-0.534
					c0.027-0.107,2.664-10.792,4.434-22.491c2.315-15.299,2.132-25.341-0.53-29.044c-0.816-1.135-1.857-1.651-3.181-1.553
					c-1.446,0.097-2.664,0.852-3.725,2.308c-7.59,10.416-2.729,50.481-2.68,50.884l-1.372,0.35
					c-2.518-8.908-10.299-32.187-15.981-32.915c-1.089-0.143-2.057,0.646-2.982,2.398c-7.172,13.601,14.039,38.155,14.254,38.401
					L1843.791,1577.405z"/>
			</g>
		</g>
	</g>
	<g>
		<g>
			<g>
				<path style="fill:#6F4975;" d="M1648.957,1581.746l-522.912,14.077c-37.78,0-71.637-25.863-71.637-63.642l22.799-947.422
					c0-37.78,30.738-68.518,68.518-68.518h503.233c37.779,0,91.646,20.775,91.646,77.48l-23.133,919.51
					C1717.47,1551.011,1686.736,1581.746,1648.957,1581.746L1648.957,1581.746z"/>
			</g>
			<g>
				<path style="fill:#96B4E0;" d="M1649.157,533.611h-503.638c-28.135,0-50.942,22.173-50.942,49.527l-14.601,905.588
					c-0.501,61.977,32.831,59.603,60.965,59.603l507.525-14.01c28.141,0,51.639-32.295,51.639-59.653l20.549-885.693
					C1720.655,561.62,1677.297,533.611,1649.157,533.611L1649.157,533.611z"/>
			</g>
		</g>
		<g>
			<g>
				<g>
					<path style="fill:#CFD3A3;" d="M1437.314,542.164c0-105.424-93.717-178.105-198.125-178.105
						c-151.204,0-203.131,85.463-203.131,190.888c0,105.424,119.824,180.089,224.231,180.089
						C1364.697,735.037,1437.314,647.589,1437.314,542.164z"/>
				</g>
				<g>
					<path style="fill:#CFD3A3;" d="M1470.359,711.378c0,0-66.091-10.302-70.81-76.65l-51.927,38.325
						C1347.622,673.054,1372.405,734.021,1470.359,711.378z"/>
				</g>
			</g>
			<g>
				<path style="fill:#2F1A31;" d="M1263.288,757.707c-52.3,0-109.165-18.987-152.117-50.79
					c-47.423-35.113-73.54-81.537-73.54-130.723c0-57.68,15.221-103.418,45.241-135.945c34.521-37.403,88.123-56.368,159.314-56.368
					c52.309,0,101.725,17.708,139.144,49.863c38.953,33.473,60.405,79.523,60.405,129.667c0,42.283-11.464,82.122-33.158,115.261
					c15.655,44.323,64.505,52.468,64.999,52.544l7.266,1.141l-7.165,1.657c-29.828,6.894-71.755,10.088-102.895-13.51
					C1340.44,744.848,1303.295,757.707,1263.288,757.707z M1242.187,386.731c-70.364,0-123.26,18.657-157.22,55.451
					c-29.519,31.984-44.487,77.072-44.487,134.012c0,48.259,25.708,93.87,72.386,128.434c42.478,31.453,98.71,50.229,150.422,50.229
					c39.73,0,76.585-12.888,106.574-37.273l0.881-0.716l0.895,0.7c28.273,22.043,66.272,20.798,95.2,15.007
					c-14.231-3.908-48.595-16.935-61.184-53.637l-0.227-0.662l0.386-0.583c21.637-32.789,33.074-72.307,33.074-114.282
					c0-49.3-21.1-94.583-59.413-127.507C1342.572,404.195,1293.816,386.731,1242.187,386.731z"/>
			</g>
			<g>
				<path style="fill:#FFFFFF;" d="M1322.5,571.039h-148.581c-3.27,0-8.301-3.408-8.736-6.649c-0.89-6.649,5.457-8.549,8.728-8.549
					l148.589,3.306c3.27,0,5.946,2.676,5.946,5.946l0,0C1328.446,568.362,1325.77,571.039,1322.5,571.039z"/>
			</g>
			<g>
				<path style="fill:#FFFFFF;" d="M1303.931,543.121h-112.149c-2.468,0-6.267-2.737-6.593-5.342
					c-0.674-5.342,4.118-6.869,6.586-6.869l112.156,2.656c2.468,0,4.488,2.15,4.488,4.777l0,0
					C1308.419,540.972,1306.399,543.121,1303.931,543.121z"/>
			</g>
		</g>
		<g>
			<g>
				<g>
					<path style="fill:#E28569;" d="M1389.274,945.379c0-105.425,93.716-178.106,198.124-178.106
						c151.204,0,203.131,85.464,203.131,190.888c0,105.424-119.823,180.087-224.231,180.087
						C1461.89,1138.248,1389.274,1050.803,1389.274,945.379z"/>
				</g>
				<g>
					<path style="fill:#FFFFFF;" d="M1662.333,979.102h-148.58c-3.27,0-8.301-3.408-8.736-6.649
						c-0.89-6.649,5.457-8.549,8.728-8.549l148.589,3.306c3.27,0,5.946,2.676,5.946,5.946l0,0
						C1668.279,976.426,1665.603,979.102,1662.333,979.102z"/>
				</g>
				<g>
					<path style="fill:#FFFFFF;" d="M1650.174,1004.852h-133.957c-2.948,0-7.484-3.408-7.876-6.649
						c-0.802-6.649,4.92-8.549,7.869-8.549l133.964,3.306c2.948,0,5.361,2.676,5.361,5.946l0,0
						C1655.535,1002.176,1653.122,1004.852,1650.174,1004.852z"/>
				</g>
				<g>
					<path style="fill:#FFFFFF;" d="M1643.765,951.185h-112.149c-2.468,0-6.267-2.737-6.593-5.342
						c-0.674-5.342,4.118-6.868,6.586-6.868l112.156,2.656c2.468,0,4.488,2.15,4.488,4.777l0,0
						C1648.253,949.036,1646.233,951.185,1643.765,951.185z"/>
				</g>
				<g>
					<path style="fill:#E28569;" d="M1356.229,1114.593c0,0,66.09-10.303,70.809-76.652l51.927,38.325
						C1478.965,1076.267,1454.183,1137.234,1356.229,1114.593z"/>
				</g>
			</g>
			<g>
				<path style="fill:#2F1A31;" d="M1563.3,1160.921c-40.007,0-77.152-12.861-107.494-37.203
					c-31.141,23.597-73.069,20.401-102.895,13.509l-7.165-1.657l7.266-1.138c0.494-0.079,49.344-8.221,64.997-52.547
					c-21.693-33.14-33.158-72.979-33.158-115.259c0-50.146,21.453-96.195,60.406-129.669
					c37.417-32.154,86.833-49.861,139.144-49.861c71.191,0,124.793,18.963,159.313,56.367
					c30.021,32.526,45.242,78.264,45.242,135.944c0,49.185-26.117,95.61-73.54,130.725
					C1672.465,1141.936,1615.599,1160.921,1563.3,1160.921z M1455.845,1120.084l0.881,0.716
					c29.989,24.381,66.842,37.272,106.574,37.272c51.711,0,107.942-18.779,150.421-50.232
					c46.678-34.562,72.386-80.175,72.386-128.433c0-56.941-14.967-102.028-44.487-134.012c-33.96-36.794-86.855-55.45-157.219-55.45
					c-51.629,0-100.384,17.463-137.287,49.173c-38.314,32.924-59.412,78.206-59.412,127.508c0,41.973,11.436,81.49,33.073,114.279
					l0.386,0.586l-0.227,0.663c-12.589,36.7-46.952,49.725-61.183,53.634c28.926,5.79,66.926,7.037,95.2-15.007L1455.845,1120.084z"
					/>
			</g>
		</g>
		<g>
			<g>
				<g>
					<path style="fill:#CFD3A3;" d="M1469.3,1311.758c0-77.885-69.235-131.58-146.368-131.58
						c-111.704,0-150.066,63.138-150.066,141.022c0,77.883,88.52,133.043,165.654,133.043
						C1415.654,1454.245,1469.3,1389.641,1469.3,1311.758z"/>
				</g>
				<g>
					<path style="fill:#CFD3A3;" d="M1493.712,1436.766c0,0-48.825-7.611-52.313-56.626l-38.362,28.312
						C1403.037,1408.453,1421.347,1453.493,1493.712,1436.766z"/>
				</g>
			</g>
			<g>
				<path style="fill:#2F1A31;" d="M1340.734,1471.365c-38.713,0-80.806-14.054-112.599-37.595
					c-35.132-26.012-54.48-60.416-54.48-96.873c0-42.708,11.278-76.582,33.522-100.683c25.577-27.711,65.267-41.762,117.968-41.762
					c38.735,0,75.327,13.114,103.038,36.926c28.86,24.801,44.755,58.922,44.755,96.077c0,31.242-8.455,60.686-24.457,85.2
					c11.569,32.417,47.3,38.344,47.664,38.402l7.283,1.136l-7.182,1.659c-22.036,5.095-52.995,7.457-76.092-9.872
					C1397.715,1461.9,1370.278,1471.365,1340.734,1471.365z M1325.146,1197.301c-122.854,0-148.64,75.914-148.64,139.596
					c0,35.532,18.938,69.121,53.325,94.583c31.32,23.19,72.779,37.036,110.903,37.036c29.268,0,56.413-9.492,78.5-27.452
					l0.881-0.716l0.894,0.697c20.288,15.819,47.424,15.314,68.514,11.311c-11.321-3.374-35.025-13.374-43.964-39.433l-0.227-0.662
					l0.386-0.584c15.945-24.164,24.373-53.287,24.373-84.222c0-36.311-15.543-69.664-43.763-93.916
					C1399.133,1210.171,1363.2,1197.301,1325.146,1197.301z"/>
			</g>
			<g>
				<path style="fill:#FFFFFF;" d="M1399.16,1322.798H1250.58c-3.272,0-8.304-3.407-8.736-6.648
					c-0.891-6.649,5.456-8.549,8.726-8.549l148.59,3.306c3.27,0,5.945,2.674,5.945,5.946l0,0
					C1405.105,1320.123,1402.43,1322.798,1399.16,1322.798z"/>
			</g>
			<g>
				<path style="fill:#FFFFFF;" d="M1380.591,1294.881h-112.149c-2.468,0-6.266-2.737-6.594-5.341
					c-0.671-5.343,4.119-6.869,6.587-6.869l112.156,2.656c2.469,0,4.488,2.149,4.488,4.777l0,0
					C1385.079,1292.731,1383.061,1294.881,1380.591,1294.881z"/>
			</g>
			<g>
				<path style="fill:#FFFFFF;" d="M1380.591,1350.923h-112.149c-2.468,0-6.266-2.739-6.594-5.343
					c-0.671-5.342,4.119-6.868,6.587-6.868l112.156,2.657c2.469,0,4.488,2.149,4.488,4.776l0,0
					C1385.079,1348.772,1383.061,1350.923,1380.591,1350.923z"/>
			</g>
		</g>
		<g>
			<g>
				<path style="fill:#6F4975;" d="M1618.434,1333.88c0-17.271-14.001-31.274-31.273-31.274c-17.27,0-31.272,14.003-31.272,31.274
					c0,17.271,14.001,31.273,31.272,31.273C1604.433,1365.153,1618.434,1351.151,1618.434,1333.88z"/>
			</g>
			<g>
				<path style="fill:#6F4975;" d="M1530.205,1446.939h113.912c14.99,0,24.667-15.896,17.738-29.188
					c-9.905-19.002-30.797-40.277-74.696-40.277c-43.902,0-64.79,21.276-74.692,40.278
					C1505.539,1431.046,1515.215,1446.939,1530.205,1446.939z"/>
			</g>
		</g>
		<g>
			<g>
				<path style="fill:#6F4975;" d="M1307.249,975.1c0-16.7-13.538-30.239-30.238-30.239c-16.7,0-30.24,13.539-30.24,30.239
					c0,16.702,13.539,30.24,30.24,30.24C1293.711,1005.34,1307.249,991.802,1307.249,975.1z"/>
			</g>
			<g>
				<path style="fill:#6F4975;" d="M1221.935,1084.425h110.149c14.495,0,23.852-15.37,17.151-28.224
					c-9.577-18.374-29.777-38.946-72.227-38.946c-42.452,0-62.65,20.573-72.226,38.947
					C1198.085,1069.056,1207.442,1084.425,1221.935,1084.425z"/>
			</g>
		</g>
		<g>
			<g>
				<path style="fill:#6F4975;" d="M1609.101,628.397c0-15.229-12.346-27.574-27.576-27.574c-15.228,0-27.574,12.346-27.574,27.574
					c0,15.23,12.346,27.576,27.574,27.576C1596.755,655.973,1609.101,643.627,1609.101,628.397z"/>
			</g>
			<g>
				<path style="fill:#6F4975;" d="M1531.304,728.091h100.443c13.218,0,21.751-14.017,15.642-25.738
					c-8.734-16.755-27.155-35.514-65.865-35.514c-38.711,0-57.13,18.76-65.863,35.516
					C1509.554,714.076,1518.085,728.091,1531.304,728.091z"/>
			</g>
		</g>
	</g>
	<g>
		<path style="fill:#FFB27D;" d="M903.189,1342.234c3.763,6.706,41.554,65.243,33.644,122.498l-41.132-14.872l-18.796-77.176
			L903.189,1342.234z"/>
		<path style="fill:#EF8062;" d="M738.945,1318.243c0,0,25.272-45.325,86.787-32.794c61.515,12.531,95.086,100.578,78.401,274.972
			c0,0-97.727-38.853-224.798-7.532C679.335,1552.888,700.25,1383.995,738.945,1318.243z"/>
		<path style="fill:#EF8062;" d="M692.025,1299.928l43.24,43.165c0,0,110.852,29.949,141.64,29.591
			c30.789-0.358,42.908-22.861,42.908-22.861s-25.986-41.152-78.566-59.766c-4.939-1.756-10.106-3.303-15.514-4.604
			c-9.078-2.177-18.308-3.434-27.468-3.981C743.836,1278.231,692.025,1299.928,692.025,1299.928z"/>
		<path style="fill:#331832;" d="M692.026,1299.928c-6.912,7.513,3.748,15.72,15.687,27.64c11.94,11.92,24.274,18.871,27.549,15.526
			c3.276-3.345-3.748-15.72-15.687-27.64C707.636,1303.534,695.197,1296.481,692.026,1299.928z"/>
		<path style="fill:#FFB27D;" d="M729.514,1343.27c0,0,0.644-8.621-10.192-19.628c-6.526-6.63-14.788-10.962-20.329-13.36
			c-3.294-1.426-7.099,0.177-8.406,3.546l-3.466,8.938l16.141,10.392L729.514,1343.27z"/>
		<path style="fill:#73A0D1;" d="M805.919,1503.155c0,0-133.395-72.289-181.208,6.568c-35.394,58.374,17.81,112.737,215.154,107.216
			c0,0,19.503-9.136,14.753-56.519C852.737,1541.646,805.919,1503.155,805.919,1503.155z"/>
		<path style="fill:#73A0D1;" d="M805.919,1503.155c0,0,177.663-72.776,212.816-27.281c40.4,52.286,1.657,141.065-185.615,109.329
			l-22.822-24.783L805.919,1503.155z"/>
		<g>
			<path style="fill:#020202;" d="M840.083,1617.243l-0.435-0.609c20.718-14.783,15.149-52.748,14.638-55.939l-134.659-49.009
				l0.256-0.703l135.066,49.157l0.037,0.213C855.06,1560.765,861.993,1601.61,840.083,1617.243z"/>
		</g>
		<path style="fill:#331832;" d="M855.754,1573.455c0,0,32.742,1.331,48.122,8.874c15.38,7.543,7.167,25.956-24.061,25.464
			c-31.229-0.492-28.858-5.139-28.858-5.139S856.889,1586.49,855.754,1573.455z"/>
		<g>
			<path style="fill:#FFB27D;" d="M813.842,1506.621c10.843,0,19.751-2.742,26.974-8.191c13.641-10.289,16.172-26.691,14.194-37.611
				l-13.051-7.588c-0.648-3.581-25.833,9.725-25.79,9.712c-0.115,0.038-12.019,3.482-53.295-17.611
				c-28.733-14.683-43.214-35.523-44.271-63.708c-0.798-21.248,8.675-33.183,10.91-38.355c0.298-0.689-13.886-14.908-13.479-16.356
				l-10.633-5.403c0.343-1.219-10.223-5.387-10.073-5.735l-8.206,6.99c-4.05,9.367-12.664,30.873-11.553,60.505
				c1.155,30.782,13.866,73.267,67.859,100.859C772.872,1499.177,795.981,1506.62,813.842,1506.621z"/>
		</g>
		<g>
			<path style="fill:#764678;" d="M822.6,1508.35h115.122c2.411,0,4.55-1.533,5.311-3.804l23.924-71.446
				c1.205-3.598-1.492-7.311-5.311-7.311H850.937c-5.045,0-9.524,3.208-11.116,7.962l-22.531,67.288
				C816.085,1504.637,818.782,1508.35,822.6,1508.35z"/>
			<path style="fill:#764678;" d="M829.826,1508.35h115.122c2.41,0,4.55-1.533,5.311-3.804l23.923-71.446
				c1.205-3.598-1.492-7.311-5.311-7.311H858.162c-5.045,0-9.524,3.208-11.116,7.962l-22.531,67.288
				C823.31,1504.637,826.008,1508.35,829.826,1508.35z"/>
			<path style="fill:#DAEBE8;" d="M910.49,1464.731c0-2.712-3.129-3.818-5.861-3.818s-7.192,2.977-7.163,6.778
				c0.031,4.101,3.236,4.635,5.967,4.635C906.164,1472.326,910.49,1468.184,910.49,1464.731z"/>
			<path style="fill:#764678;" d="M787.503,1498.254h157.503v10.096H784.211c-1.879,0-3.402-1.523-3.402-3.402l0,0
				C780.809,1501.251,783.806,1498.254,787.503,1498.254z"/>
			<g>
				<path style="fill:#331832;" d="M838.011,1461.908l-0.722-0.192c0.232-0.874,5.729-21.484,9.431-28.148
					c3.756-6.757,8.352-8.088,8.545-8.141l0.199,0.722c-0.045,0.011-4.5,1.321-8.091,7.784
					C843.716,1440.516,838.068,1461.695,838.011,1461.908z"/>
			</g>
			<g>
				<path style="fill:#331832;" d="M820.997,1498.628v-0.748c3.771,0,4.707-1.563,4.716-1.578l8.945-26.735l0.709,0.237
					l-8.973,26.796C826.327,1496.74,825.265,1498.628,820.997,1498.628z"/>
			</g>
		</g>
		<g>
			<path style="fill:#EC865C;" d="M710.347,1444.681c-0.411,0-0.84-0.059-1.281-0.177c-2.479-0.664-5.201-3.146-7.106-6.477l0,0
				c-2.918-5.103-2.996-10.384-0.179-12.026c0.877-0.511,1.964-0.618,3.135-0.303c2.478,0.664,5.202,3.146,7.106,6.477
				c2.917,5.101,2.995,10.384,0.179,12.025C711.654,1444.52,711.026,1444.681,710.347,1444.681z M703.258,1437.285
				c1.688,2.952,4.12,5.219,6.195,5.775c0.791,0.21,1.461,0.16,1.996-0.15c2.028-1.183,1.697-5.758-0.723-9.992
				c-1.688-2.952-4.12-5.219-6.195-5.775c-0.789-0.21-1.461-0.16-1.995,0.151C700.506,1428.475,700.838,1433.05,703.258,1437.285
				L703.258,1437.285z"/>
		</g>
		<path style="fill:#FFB27D;" d="M797.314,1281.363c7.564-0.222,13.301-1,17.652-6.118l13.465-15.838l3.919-4.611l23.046-27.112
			l-12.103,31.703l-7.267,19.028l-2.3,6.023c-1.561,4.089,0.502,5.994,1.955,10.777c0.589,1.938,4.561,13.863-5.787,13.937
			c-12.891,0.094-29.195-14.889-32.776-27.828C797.183,1281.338,797.247,1281.365,797.314,1281.363z"/>
		<path style="fill:#331832;" d="M824.686,1249.232c0,0-25.376-24.388-10.737-44.973c14.639-20.585,18.296,33.037,18.296,33.037
			l-4.091,12.395L824.686,1249.232z"/>
		<path style="fill:#331832;" d="M828.558,1258.86c-0.048,0.181-0.09,0.363-0.127,0.547c-2.355,10.693,7.508,19.045,7.508,19.045
			l0.086-0.036l7.267-19.028c-3.088-2.313-7.635-5.11-10.943-4.592C830.621,1255.067,829.232,1256.243,828.558,1258.86z"/>
		
			<ellipse transform="matrix(0.2768 -0.9609 0.9609 0.2768 -571.0211 1715.1729)" style="fill:#FFB27D;" cx="853.936" cy="1236.935" rx="36.033" ry="29.641"/>
		<path style="fill:#331832;" d="M830.953,1225.504c0,0,8.08,5.877,14.854,0.911c6.774-4.966,11.564-9.676,26.73-2.043
			c15.166,7.634,31.769,4.206,34.835-4.389c3.066-8.596-4.158-15.177-13.685-14.751c-9.527,0.426,2.016-4.797-4.611-13.831
			c-6.627-9.035-23.436,0.273-31.769-4.206c-8.333-4.479-38.017-8.369-43.357,17.064L830.953,1225.504z"/>
		<path style="fill:#FFB27D;" d="M824.613,1230.598c1.948,3.007,5.685,4.02,8.347,2.262c2.662-1.758,3.24-5.621,1.292-8.628
			c-1.948-3.007-5.685-4.02-8.347-2.263C823.243,1223.727,822.665,1227.59,824.613,1230.598z"/>
		<g>
			<path style="fill:#FFFFFF;" d="M890.619,1217.005c-6.371,0-15.018-7.775-15.414-8.135l0.746-0.822
				c0.101,0.092,10.193,9.168,16.026,7.688c2.242-0.569,3.51-1.63,3.308-2.771c-0.192-1.085-1.788-2.114-4.041-1.886
				c-4.935,0.508-7.615-1.171-7.727-1.243l0.597-0.936c0.024,0.015,2.492,1.538,7.017,1.074c3.026-0.315,4.965,1.21,5.246,2.798
				c0.246,1.385-0.711,3.174-4.128,4.041C891.729,1216.945,891.183,1217.005,890.619,1217.005z"/>
		</g>
		<g>
			<path style="fill:#FFFFFF;" d="M864.422,1195.713c-2.104,0-4.28-0.311-6.354-1.124c-2.64-1.034-4.933-2.246-7.151-3.419
				c-4.301-2.273-8.013-4.234-12.058-3.45l-0.212-1.09c4.424-0.863,8.303,1.186,12.788,3.558c2.191,1.157,4.455,2.355,7.037,3.366
				c7.712,3.022,16.735-1.343,17.301-1.819l0.812,0.755C876.104,1193.049,870.576,1195.713,864.422,1195.713z"/>
		</g>
		<g>
			<path style="fill:#FFFFFF;" d="M821.646,1202.94c-0.163,0-0.314-0.024-0.451-0.076c-0.373-0.141-0.946-0.58-0.585-1.935
				l0.082-0.175c0.623-0.89,3.845-5.26,6.06-3.861c0.284,0.179,0.881,0.722,0.292,1.909
				C826.311,1200.277,823.351,1202.94,821.646,1202.94z M821.661,1201.308c-0.1,0.422-0.039,0.549-0.038,0.55
				c0.299,0.105,1.902-0.666,3.426-2.237c1.076-1.11,1.166-1.691,1.13-1.776C825.195,1197.224,822.93,1199.52,821.661,1201.308z"/>
		</g>
		<g>
			<path style="fill:#080435;" d="M859.622,1237.875c0.181-0.025,0.347-0.133,0.442-0.306c0.161-0.292,0.058-0.661-0.232-0.823
				c-0.17-0.096-3.916-2.694-7.929,0.743c-0.253,0.217-0.296,0.594-0.086,0.853c0.209,0.259,0.548,0.238,0.845,0.087
				c2.969-1.504,6.443-0.703,6.586-0.624C859.367,1237.871,859.498,1237.892,859.622,1237.875z"/>
		</g>
		<path style="fill:#080435;" d="M854.076,1243.876c-0.226,1.428,0.423,2.721,1.449,2.887c1.027,0.166,2.042-0.858,2.269-2.286
			c0.226-1.429-0.423-2.721-1.449-2.887C855.318,1241.424,854.302,1242.448,854.076,1243.876z"/>
		<g>
			<path style="fill:#080435;" d="M880.594,1245.48c0.136,0.035,0.292-0.01,0.419-0.14c0.215-0.22,0.27-0.597,0.122-0.844
				c-0.087-0.145-1.833-3.796-5.863-1.908c-0.254,0.119-0.415,0.456-0.357,0.767c0.058,0.311,0.305,0.401,0.567,0.359
				c2.621-0.428,4.799,1.459,4.872,1.579C880.414,1245.393,880.5,1245.456,880.594,1245.48z"/>
		</g>
		<path style="fill:#080435;" d="M873.069,1248.862c-0.748,1.234-0.636,2.678,0.251,3.226c0.887,0.548,2.212-0.008,2.96-1.241
			c0.748-1.234,0.636-2.678-0.251-3.226C875.143,1247.072,873.817,1247.628,873.069,1248.862z"/>
		<g>
			<g>
				<path style="fill:#020202;" d="M855.893,1264.05c-3.611,0-9.062-1.065-12.297-6.782c-0.115-0.203-0.044-0.46,0.159-0.574
					c0.202-0.114,0.46-0.043,0.574,0.159c4.809,8.496,14.576,6.112,14.99,6.006c0.221-0.061,0.454,0.078,0.512,0.303
					c0.058,0.225-0.078,0.454-0.303,0.512C859.489,1263.685,858.005,1264.05,855.893,1264.05z"/>
			</g>
			<g>
				<path style="fill:#020202;" d="M842.74,1258.751c-0.044,0-0.089-0.007-0.132-0.021c-0.221-0.074-0.341-0.312-0.268-0.532
					c0.347-1.05,1.277-2.016,2.765-2.873c0.196-0.114,0.495-0.079,0.616,0.113c0.12,0.193,0.114,0.417-0.074,0.543l-0.122,0.073
					c-1.623,0.934-2.193,1.825-2.385,2.407C843.081,1258.639,842.917,1258.751,842.74,1258.751z"/>
			</g>
		</g>
		<g>
			
				<rect x="891.929" y="1347.89" transform="matrix(0.9499 -0.3125 0.3125 0.9499 -379.8849 347.0505)" style="fill:#331832;" width="1.847" height="21.747"/>
		</g>
		<g>
			<path style="fill:#FFFFFF;" d="M876.444,1269.289c-2.168,0-4.12-0.809-5.703-2.378c-5.064-5.018-4.825-16.644,0.532-25.917
				c3.299-5.708,7.925-9.472,12.376-10.069c2.653-0.352,5.048,0.439,6.922,2.296c5.064,5.016,4.825,16.643-0.532,25.917
				c-3.299,5.708-7.926,9.472-12.377,10.069C877.25,1269.262,876.843,1269.289,876.444,1269.289z M884.853,1232.096
				c-0.34,0-0.686,0.024-1.038,0.071c-4.069,0.544-8.352,4.078-11.458,9.453c-5.092,8.812-5.421,19.759-0.736,24.401
				c1.588,1.573,3.62,2.249,5.874,1.944c4.069-0.545,8.353-4.079,11.458-9.454c5.091-8.813,5.421-19.759,0.736-24.401
				C888.35,1232.782,886.693,1232.096,884.853,1232.096z"/>
		</g>
		<path style="opacity:0.3;fill:#FFFFFF;" d="M841.11,1227.366c-4.338,9.225-3.139,20.448,2.679,25.067
			c5.817,4.62,14.05,0.887,18.389-8.338c4.338-9.224,3.139-20.447-2.679-25.067C853.681,1214.409,845.448,1218.142,841.11,1227.366z
			"/>
		<path style="opacity:0.3;fill:#FFFFFF;" d="M870.842,1241.735c-4.354,9.268-3.765,20.513,1.314,25.117
			c5.08,4.604,12.727,0.823,17.081-8.445c4.354-9.268,3.765-20.513-1.314-25.117
			C882.843,1228.686,875.196,1232.467,870.842,1241.735z"/>
		<g>
			<path style="fill:#FFFFFF;" d="M850.302,1254.911c-2.273,0-4.423-0.755-6.319-2.235c-6.425-5.017-7.842-17.108-3.159-26.953
				c2.732-5.742,6.973-9.668,11.637-10.769c3.202-0.761,6.262-0.088,8.848,1.932c6.425,5.017,7.842,17.108,3.159,26.953
				c-2.731,5.742-6.973,9.668-11.637,10.769C851.976,1254.811,851.13,1254.911,850.302,1254.911z M854.977,1215.906
				c-0.73,0-1.474,0.089-2.227,0.266c-4.229,0.999-8.265,4.77-10.794,10.088c-4.445,9.345-3.19,20.753,2.798,25.429
				c2.277,1.778,4.971,2.368,7.789,1.7c4.229-0.999,8.265-4.77,10.794-10.088c4.445-9.345,3.19-20.753-2.799-25.429
				C858.871,1216.57,856.979,1215.906,854.977,1215.906z"/>
		</g>
		<g>
			<path style="fill:#FFFFFF;" d="M871.586,1245.683c-0.35,0-0.695-0.156-0.925-0.453l0,0c-0.101-0.129-2.528-3.149-7.816-3.28
				c-0.646-0.017-1.156-0.553-1.14-1.198c0.017-0.646,0.529-1.164,1.198-1.14c6.456,0.161,9.485,4.028,9.611,4.192
				c0.393,0.513,0.294,1.247-0.218,1.638C872.083,1245.605,871.834,1245.683,871.586,1245.683z"/>
		</g>
	</g>
	<g>
		<g>
			<path style="fill:#E28569;" d="M1855.541,1640.481c0,0,116.406,18.074,214.003,8.507c97.597-9.565,232.455-14.84,207.89-175.744
				c-24.565-160.904,2.016-228.144-94.365-267.722c-96.379-39.578-208.491-13.912-283.664,78.106
				C1824.233,1375.647,1648.131,1571.641,1855.541,1640.481z"/>
		</g>
		<g>
			<path style="fill:#2F1A31;" d="M2065.339,1403.037c-0.653,0-1.22-0.484-1.307-1.149c-0.093-0.723,0.417-1.384,1.138-1.478
				c35.924-4.66,63.866-25.002,80.98-41.245c18.569-17.625,28.726-34.323,28.826-34.489c0.376-0.624,1.188-0.824,1.81-0.449
				c0.624,0.375,0.825,1.186,0.449,1.81c-0.102,0.169-10.446,17.172-29.27,35.039c-17.399,16.515-45.827,37.197-82.456,41.949
				C2065.453,1403.033,2065.395,1403.037,2065.339,1403.037z"/>
		</g>
		<g>
			<path style="fill:#2F1A31;" d="M2120.722,1382.207c-0.197,0-0.396-0.045-0.584-0.138c-0.653-0.323-0.92-1.114-0.597-1.766
				c7.129-14.408,6.774-27.187,5.22-35.37c-1.688-8.899-5.121-14.461-5.156-14.515c-0.386-0.617-0.199-1.432,0.418-1.818
				c0.615-0.387,1.43-0.201,1.817,0.416c0.145,0.232,14.39,23.507,0.065,52.456
				C2121.676,1381.938,2121.208,1382.207,2120.722,1382.207z"/>
		</g>
	</g>
	<g>
		<path style="fill:#331832;" d="M1749.692,669.484c0,0,3.068,20.012,11.231,30.214c5.381,6.724,20.225,20.042,9.669,24.48
			c-8.431,3.544-24.667-12.235-29.936-16.16c-5.271-3.926-13.218-11.355-11.455-17.686c3.652-13.115,2.448-29.603,2.448-29.603
			L1749.692,669.484z"/>
		<path style="fill:#331832;" d="M1690.623,653.962c0,0-4.082,19.83,0.026,32.233c2.708,8.176,11.995,25.824,0.555,26.314
			c-9.137,0.392-18.874-20.047-22.451-25.56c-3.577-5.513-8.445-15.242-4.591-20.566c7.984-11.028,12.587-26.905,12.587-26.905
			L1690.623,653.962z"/>
		<g>
			<path style="fill:#366F90;" d="M1696.344,667.976c109.441-73.002,104.036-136.955,88.87-161.965
				c-17.614-29.046-45.503-52.013-88.245-62.258c-11.395-2.732-22.243-4.311-31.305-5.22c-13.125-1.316-24.43,9.166-24.083,22.352
				l0.981,37.245l-0.083,0.002c18.26-0.382,73.659,5.185,88.174,34.706c3.017,6.136-70.652,92.662-67.903,108.188
				C1665.859,658.589,1685.643,675.114,1696.344,667.976z"/>
		</g>
		<g>
			<path style="fill:#366F90;" d="M1738.778,678.909c12.586,0.063,22.623-10.509,21.881-23.073
				c-1.65-27.932-6.839-75.471-23.105-111.389c-9.225-20.37-23.891-38.892-43.593-55.05c-14.855-12.184-32.633-23.073-52.841-32.365
				c-33.611-15.455-57.82-13.299-57.82-13.299l-18.369,27.087c0.243,0.049-5.152,27.323,33.682,51.644
				c21.426,13.418,64.499,21.618,82.219,56.296c12.65,24.757,17.484,57.582,19.092,80.521c0.769,10.972,9.883,19.483,20.882,19.538
				L1738.778,678.909z"/>
		</g>
		<path style="fill:#FFB27D;" d="M1713.784,347.725c0,0,22.573,34.729,30.659,86.211c5.351,34.067-56.646-5.593-56.646-5.593
			l-2.757-71.166L1713.784,347.725z"/>
		<path style="fill:#73A0D1;" d="M1600.944,328.096c0,0,17.193-29.389,56.827-20.37c39.634,9.019,55.782,49.5,58.621,146.714
			c0,0-23.802,42.119-132.079,33.908c-11.996-0.91-29.188-2.496-23.325-21.949C1571.887,430.24,1582.444,358.114,1600.944,328.096z"
			/>
		<path style="fill:#73A0D1;" d="M1557.343,336.679l40.768,7.663c0,0,71.289,21.083,91.246,21.25
			c19.957,0.167,28.216-14.429,28.216-14.429s-16.096-27.322-49.831-40.212c-3.169-1.216-6.489-2.297-9.97-3.221
			c-5.843-1.546-11.782-2.901-17.727-2.969C1572.75,303.988,1557.343,336.679,1557.343,336.679z"/>
		<path style="fill:#331832;" d="M1557.343,336.679c-0.882,3.214,7.664,8.577,19.087,11.978c11.424,3.402,21.399,3.554,22.281,0.34
			c0.882-3.214-7.664-8.577-19.087-11.979C1568.201,333.617,1558.225,333.465,1557.343,336.679z"/>
		<g>
			<path style="fill:#FFB27D;" d="M1564.384,427.21c17.412,27.284,51.905,44.699,88.15,43.557l-3.863-29.079
				c-28.104-5.122-49.649-23.412-53.662-38.83c-5.042-19.373-3.313-38.244-0.903-52.427c0.229-1.345-0.302-2.699-1.385-3.529
				c-3.593-2.753-12.904-8.348-29.54-8.678c-1.48-0.029-2.791,0.964-3.171,2.395C1553.05,366.835,1548.846,402.863,1564.384,427.21z
				"/>
		</g>
		<g>
			<path style="fill:#E9845C;" d="M1582.725,435.833c-0.642,0-1.306-0.135-1.972-0.404c-1.903-0.768-3.612-2.581-4.57-4.849
				c-1.664-3.938-0.668-8.145,2.219-9.379c1.127-0.481,2.401-0.461,3.688,0.058c1.903,0.768,3.612,2.581,4.569,4.849
				c1.664,3.939,0.668,8.145-2.22,9.378C1583.896,435.716,1583.321,435.833,1582.725,435.833z M1580.115,421.552
				c-0.502,0-0.986,0.097-1.439,0.29c-2.535,1.083-3.365,4.88-1.851,8.464c0.889,2.102,2.454,3.775,4.189,4.475
				c1.109,0.447,2.198,0.469,3.15,0.061c2.535-1.082,3.366-4.878,1.852-8.463c-0.887-2.102-2.453-3.774-4.189-4.475
				C1581.246,421.67,1580.67,421.552,1580.115,421.552z"/>
		</g>
		<g>
			<path style="fill:#FFB27D;" d="M1648.671,441.688c0,0,26.031-8.279,34.305-4.363c8.274,3.916,15.883,15.173,10.239,13.835
				c-5.645-1.338-12.384-5.04-12.384-5.04s14.028,8.587,10.599,10.997c-3.429,2.411-15.557-5.174-15.557-5.174
				s15.878,11.547,11.901,12.776c-3.976,1.229-15.976-7.629-15.976-7.629s14.343,11.334,9.691,12.653
				c-4.652,1.319-11.793-9.443-15.221-7.032c-3.429,2.411-12.175,13.483-20.041,4.77L1648.671,441.688z"/>
			<g>
				<path style="fill:#E9845C;" d="M1680.614,446.379c-0.035-0.029-3.511-2.907-6.07-2.192l-0.185-0.649
					c2.907-0.826,6.535,2.195,6.689,2.324L1680.614,446.379z"/>
			</g>
			<g>
				<path style="fill:#E9845C;" d="M1675.652,452.198c-0.035-0.03-3.438-2.927-7.37-2.612l-0.053-0.675
					c4.242-0.321,7.721,2.649,7.867,2.778L1675.652,452.198z"/>
			</g>
			<g>
				<path style="fill:#E9845C;" d="M1671.581,457.349c-0.043-0.036-4.176-3.479-6.818-2.474l-0.238-0.633
					c3.017-1.132,7.311,2.437,7.491,2.589L1671.581,457.349z"/>
			</g>
		</g>
		<g>
			<path style="fill:#331832;" d="M1680.647,482.189h83.564c1.75,0,3.303-1.113,3.855-2.761l17.365-51.861
				c0.875-2.612-1.083-5.307-3.855-5.307h-80.361c-3.662,0-6.913,2.329-8.069,5.78l-16.355,48.843
				C1675.917,479.493,1677.875,482.189,1680.647,482.189z"/>
			<path style="fill:#331832;" d="M1685.891,482.189h83.564c1.75,0,3.303-1.113,3.855-2.761l17.365-51.861
				c0.875-2.612-1.083-5.307-3.855-5.307h-80.361c-3.662,0-6.913,2.329-8.069,5.78l-16.355,48.843
				C1681.162,479.493,1683.12,482.189,1685.891,482.189z"/>
			<path style="fill:#DAEBE8;" d="M1744.443,450.527c0-1.969-2.272-2.772-4.254-2.772c-1.983,0-5.22,2.161-5.2,4.92
				c0.022,2.977,2.349,3.364,4.332,3.364S1744.443,453.033,1744.443,450.527z"/>
			<path style="fill:#331832;" d="M1655.17,474.86h114.328v7.329h-116.717c-1.364,0-2.47-1.106-2.47-2.47l0,0
				C1650.311,477.036,1652.487,474.86,1655.17,474.86z"/>
			<g>
				<path style="fill:#366F90;" d="M1691.833,448.477l-0.524-0.139c0.169-0.634,4.157-15.595,6.846-20.431
					c2.725-4.907,6.062-5.871,6.203-5.91l0.144,0.523c-0.032,0.009-3.267,0.959-5.873,5.65
					C1695.974,432.949,1691.875,448.323,1691.833,448.477z"/>
			</g>
			<g>
				<path style="fill:#366F90;" d="M1679.483,475.132v-0.543c2.738,0,3.418-1.135,3.424-1.146l6.493-19.405l0.515,0.173
					l-6.512,19.45C1683.352,473.761,1682.582,475.132,1679.483,475.132z"/>
			</g>
		</g>
		<g>
			<path style="fill:#020202;" d="M1756.503,617.31c-0.016-0.25-1.758-25.192-9.468-53.394
				c-7.107-25.996-20.882-60.157-46.147-75.278l0.347-0.58c25.461,15.238,39.316,49.572,46.456,75.69
				c7.727,28.268,9.47,53.267,9.488,53.516L1756.503,617.31z"/>
		</g>
		<g>
			<path style="fill:#020202;" d="M1700.724,664.789c-0.275-38.753-12.945-68.661-13.073-68.959l0.622-0.266
				c0.128,0.298,12.851,30.323,13.126,69.22L1700.724,664.789z"/>
		</g>
		<path style="fill:#331832;" d="M1674.409,309.681c0,0-9.262-4.762-10.267-10.269c-1.005-5.507-4.737-4.195-6.669-5.766
			c-1.933-1.571,5.224-15.601,5.224-15.601l20.631-5.401l-4.485,25.384L1674.409,309.681z"/>
		<path style="fill:#FFB27D;" d="M1632.731,304.814c4.308-0.053,8.266-2.379,10.336-6.158l6.485-11.841l1.881-3.437l11.065-20.208
			l-3.64,21.684l-2.186,13.014l-0.623,3.71c-0.508,3.027,1.367,5.926,4.323,6.751l0.052,0.014c1.365,2.778,3.09,8.324-3.771,9.812
			c-8.063,1.75-20.138-5.609-23.99-13.341C1632.685,304.815,1632.708,304.815,1632.731,304.814z"/>
		<path style="fill:#E1986C;" d="M1649.563,286.452c-0.008,0.121-0.011,0.242-0.011,0.364c-0.146,7.087,7.071,11.087,7.071,11.087
			l0.049-0.035l2.186-13.014c-2.222-1.061-5.418-2.238-7.425-1.475C1650.383,283.777,1649.659,284.705,1649.563,286.452z"/>
		<path style="fill:#FFB27D;" d="M1683.67,268.698c1.323-13.976-6.788-26.176-18.116-27.248
			c-11.328-1.073-21.585,9.388-22.908,23.364c-1.323,13.976,6.788,26.176,18.116,27.248
			C1672.09,293.135,1682.347,282.675,1683.67,268.698z"/>
		<path style="fill:#FFFFFF;" d="M1672.654,284.178c0,0-7.022-0.502-13.796-3.626c0,0-1.236,6.851,6.309,8.032
			C1669.555,289.271,1672.654,284.178,1672.654,284.178z"/>
		<g>
			<path style="fill:#080435;" d="M1665.118,267.188c0.14-0.024,0.268-0.111,0.338-0.248c0.118-0.23,0.028-0.512-0.201-0.631
				c-0.135-0.07-3.123-1.982-6.167,0.775c-0.192,0.174-0.216,0.466-0.046,0.661c0.17,0.195,0.434,0.17,0.662,0.046
				c2.279-1.237,5.01-0.706,5.122-0.648C1664.919,267.192,1665.022,267.205,1665.118,267.188z"/>
		</g>
		<path style="fill:#080435;" d="M1659.977,271.635c-0.141,1.11,0.398,2.092,1.203,2.194c0.805,0.102,1.572-0.714,1.713-1.824
			c0.141-1.11-0.398-2.092-1.203-2.194C1660.885,269.709,1660.118,270.526,1659.977,271.635z"/>
		<path style="fill:#080435;" d="M1673.17,273.771c-0.211,1.098,0.264,2.113,1.061,2.266c0.797,0.153,1.614-0.613,1.826-1.711
			c0.211-1.098-0.264-2.113-1.06-2.266C1674.199,271.907,1673.382,272.673,1673.17,273.771z"/>
		<path style="fill:#331832;" d="M1654.738,249.608c15.339,5.233,25.138,20.342,24.111,36.517c-0.06,0.939-0.136,1.903-0.229,2.892
			c0,0-10.829,1.349-12.382,11.703c-0.487,3.245,8.411,9.694,9.095,9.464c5.148-1.732,19.179-12.537,18.517-36.68
			c-0.663-24.143-8.257-42.554-30.106-45.36c-21.849-2.806-20.31,12.083-20.31,12.083S1646.686,246.861,1654.738,249.608z"/>
		<path style="fill:#331832;" d="M1657.809,249.944c0,0-0.395,0.205-1.04,0.614c-2.49,1.577-8.715,6.187-10.458,13.778
			c-2.195,9.559,6.549,16.469,3.283,23.715c-3.266,7.247-9.229-1.795-14.829-1.035c-5.601,0.76-9.377-2.178-8.704-13.171
			c0.672-10.994,5.65-36.323,18.619-35.095L1657.809,249.944z"/>
		<path style="fill:#FFB27D;" d="M1642.669,268.668c2.113,2.439,5.341,2.973,7.208,1.195c1.868-1.779,1.669-5.197-0.445-7.636
			c-2.114-2.439-5.341-2.974-7.208-1.195C1640.356,262.81,1640.555,266.229,1642.669,268.668z"/>
		<g>
			<path style="fill:#FFFFFF;" d="M1682.955,298.806c-0.015,0-0.031-0.002-0.046-0.005c-0.135-0.027-0.223-0.156-0.198-0.29
				c2.987-15.552-1.217-31.298-6.708-40.005c-8.49-13.469-18.98-12.825-19.083-12.815c-0.135-0.003-0.255-0.091-0.267-0.228
				c-0.01-0.136,0.091-0.257,0.228-0.267c0.106-0.013,10.874-0.703,19.542,13.045c5.542,8.789,9.787,24.679,6.775,40.362
				C1683.176,298.722,1683.072,298.806,1682.955,298.806z"/>
		</g>
		<g>
			<path style="fill:#FFFFFF;" d="M1635.406,278.539c-0.102,0-0.196-0.062-0.233-0.163c-3.945-10.807,0.274-28.497,4.915-33.458
				c4.727-5.048,11.187-1.502,11.25-1.467c0.12,0.067,0.162,0.218,0.095,0.337s-0.222,0.161-0.337,0.095
				c-0.252-0.142-6.186-3.391-10.644,1.375c-4.564,4.876-8.701,22.294-4.811,32.947c0.046,0.13-0.02,0.272-0.148,0.319
				C1635.463,278.535,1635.434,278.539,1635.406,278.539z"/>
		</g>
		<g>
			<path style="fill:#FFFFFF;" d="M1686.187,279.417h-0.009c-0.136-0.006-0.244-0.12-0.239-0.258
				c0.012-0.297,0.972-29.791-10.211-35.89c-11.192-6.102-20.497-0.563-20.59-0.505c-0.118,0.069-0.271,0.035-0.341-0.082
				c-0.072-0.117-0.035-0.269,0.082-0.341c0.095-0.059,9.64-5.75,21.087,0.493c11.451,6.245,10.515,35.117,10.47,36.343
				C1686.429,279.311,1686.319,279.417,1686.187,279.417z"/>
		</g>
	</g>
	<g>
		<path style="fill:#331832;" d="M1883.452,1568.153c0,0-3.729,24.142-13.653,36.448c-6.542,8.112-24.586,24.178-11.754,29.532
			c10.249,4.276,29.985-14.76,36.391-19.494c6.407-4.736,16.068-13.699,13.925-21.336c-4.439-15.822-2.976-35.711-2.976-35.711
			L1883.452,1568.153z"/>
		<path style="fill:#331832;" d="M1933.007,1549.428c0,0,4.962,23.922-0.032,38.885c-3.292,9.863-14.582,31.153-0.674,31.745
			c11.107,0.473,22.943-24.184,27.291-30.834c4.348-6.651,10.266-18.388,5.581-24.809c-9.705-13.303-15.301-32.457-15.301-32.457
			L1933.007,1549.428z"/>
		<g>
			<path style="fill:#764678;" d="M1926.053,1566.334c-133.036-88.066-126.467-165.216-108.03-195.387
				c21.411-35.04,55.313-62.746,107.271-75.106c13.852-3.295,27.038-5.201,38.055-6.297c15.955-1.588,29.697,11.057,29.275,26.964
				l-1.193,44.931l0.102,0.002c-22.197-0.461-89.54,6.255-107.184,41.868c-3.668,7.402,85.884,111.783,82.543,130.512
				C1963.111,1555.01,1939.061,1574.944,1926.053,1566.334z"/>
		</g>
		<g>
			<path style="fill:#764678;" d="M1874.47,1579.523c-15.299,0.076-27.501-12.677-26.599-27.834
				c2.006-33.695,8.314-91.045,28.087-134.374c11.214-24.574,29.042-46.917,52.991-66.409
				c18.058-14.698,39.669-27.834,64.234-39.043c40.858-18.644,70.286-16.043,70.286-16.043l19.232,11.544
				c-0.296,0.06,27.832,64.601-24.071,93.33c-53.148,29.418-92.18,16.181-113.72,58.015c-15.377,29.866-21.254,69.464-23.208,97.136
				c-0.935,13.236-12.014,23.504-25.384,23.57L1874.47,1579.523z"/>
		</g>
		<g>
			<path style="fill:#020202;" d="M1852.921,1505.213l-0.817-0.055c0.021-0.301,2.141-30.46,11.534-64.56
				c8.679-31.509,25.522-72.928,56.472-91.31l0.418,0.703c-30.713,18.241-47.458,59.452-56.097,90.81
				C1855.058,1474.824,1852.941,1504.913,1852.921,1505.213z"/>
		</g>
		<g>
			<path style="fill:#020202;" d="M1920.729,1562.489l-0.819-0.006c0.336-46.923,15.801-83.144,15.958-83.504l0.749,0.325
				C1936.463,1479.662,1921.062,1515.74,1920.729,1562.489z"/>
		</g>
		<path style="fill:#FFB27D;" d="M1920.336,1158.683c-4.235,5.472-45.606,52.583-46.13,104.59l38.576-7.803l26.926-66.211
			L1920.336,1158.683z"/>
		<path style="fill:#6DA49A;" d="M2069.699,1159.028c0,0-16.507-43.683-72.916-40.656c-56.41,3.027-96.036,25.282-104.225,182.713
			c0,0,77.85-4.427,166.856,47.969c14.986,8.822,38.38,7.043,39.34-10.321C2100.665,1304.153,2093.55,1238.108,2069.699,1159.028z"
			/>
		<path style="fill:#6DA49A;" d="M2119.257,1165.931l-49.566,15.702c0,0-102.625,12.013-129.983,7.626
			c-27.357-4.387-35.172-26.017-35.172-26.017s28.567-33.197,77.827-42.818c4.628-0.911,9.432-1.605,14.417-2.049
			c8.368-0.739,16.414-1.505,24.626-0.644C2101.662,1126.146,2119.257,1165.931,2119.257,1165.931z"/>
		<path style="fill:#331832;" d="M2119.257,1165.931c2.654,5.911-8.958,11.456-23.193,16.732c-14.235,5.277-26.93,6.34-28.356,2.376
			c-1.426-3.964,8.958-11.456,23.193-16.732C2105.135,1163.03,2117.531,1162.086,2119.257,1165.931z"/>
		<g>
			<path style="fill:#FFB27D;" d="M1978.145,1316.809c-9.651-1.432-17.218-5.05-22.928-10.854
				c-10.783-10.96-10.868-25.894-7.665-35.352l12.619-5.03c1.05-3.102,21.709,12.07,21.673,12.051
				c0.097,0.049,10.238,4.687,49.764-8.634c27.515-9.274,43.158-25.91,47.823-50.858c3.517-18.807-2.599-28.464-3.905-33.363
				c-0.174-0.652,3.392-8.854,18.081-13.711c15.86-5.245,21.622-1.157,21.622-1.157c2.367,8.873,7.194,29.153,2.289,55.382
				c-5.095,27.246-22.021,63.383-73.726,80.81C2015.597,1315.595,1994.044,1319.167,1978.145,1316.809z"/>
		</g>
		<g>
			<path style="fill:#8FB3E3;" d="M1969.48,1321.234l-103.554-2.829c-2.168-0.059-4.055-1.49-4.683-3.552l-19.764-64.855
				c-0.995-3.266,1.522-6.54,4.957-6.446l99.584,2.721c4.539,0.124,8.488,3.12,9.803,7.435l18.613,61.08
				C1975.432,1318.054,1972.914,1321.328,1969.48,1321.234z"/>
			<path style="fill:#8FB3E3;" d="M1962.98,1321.056l-103.554-2.829c-2.168-0.059-4.055-1.49-4.683-3.552l-19.764-64.855
				c-0.995-3.266,1.522-6.54,4.957-6.446l99.584,2.721c4.538,0.124,8.488,3.12,9.803,7.435l18.613,61.08
				C1968.932,1317.876,1966.415,1321.15,1962.98,1321.056z"/>
			<path style="fill:#DAEBE8;" d="M1891.494,1279.838c0.067-2.44,2.909-3.358,5.366-3.291c2.457,0.067,6.396,2.855,6.277,6.273
				c-0.128,3.688-3.025,4.09-5.482,4.023C1895.198,1286.776,1891.409,1282.944,1891.494,1279.838z"/>
			<path style="fill:#8FB3E3;" d="M2001.328,1313.015l-141.705-3.872l-0.248,9.082l144.652,3.952
				c1.682,0.046,3.083-1.28,3.129-2.962l0.001-0.044C2007.247,1315.862,2004.637,1313.106,2001.328,1313.015z"/>
			<g>
				<path style="fill:#764678;" d="M1956.759,1279.08c-0.046-0.193-4.605-19.384-7.734-25.396c-3.072-5.901-7.047-7.187-7.087-7.2
					l0.197-0.644c0.173,0.053,4.274,1.361,7.486,7.533c3.168,6.085,7.605,24.759,7.792,25.552L1956.759,1279.08z"/>
			</g>
			<g>
				<path style="fill:#764678;" d="M1971.16,1312.528c-3.838-0.105-4.748-1.829-4.784-1.902l-7.433-24.377l0.643-0.196l7.412,24.324
					c0-0.001,0-0.001,0-0.001c0.009,0,0.838,1.388,4.181,1.479L1971.16,1312.528z"/>
			</g>
		</g>
		<g style="opacity:0.3;">
			<path style="fill:#EC865C;" d="M2079.061,1275.393c-0.855,0-1.607-0.243-2.199-0.717c-2.291-1.834-1.523-6.526,1.748-10.681
				c2.136-2.714,4.888-4.563,7.181-4.827c1.085-0.126,2.035,0.111,2.75,0.684c2.29,1.834,1.523,6.526-1.747,10.681l0,0
				c-2.136,2.713-4.888,4.563-7.182,4.826C2079.425,1275.382,2079.24,1275.393,2079.061,1275.393z M2086.352,1260.482
				c-0.129,0-0.265,0.008-0.407,0.024c-1.92,0.22-4.384,1.917-6.276,4.323c-2.715,3.448-3.614,7.476-1.965,8.797
				c0.435,0.348,1.029,0.48,1.756,0.398c1.921-0.221,4.385-1.917,6.277-4.322l0,0c2.714-3.448,3.613-7.477,1.963-8.798
				C2087.35,1260.623,2086.897,1260.482,2086.352,1260.482z"/>
		</g>
		<path style="fill:#FFB27D;" d="M2006.949,1110.774l-8.495-14.982l-2.472-4.362l-14.539-25.647l4.863,27.611l2.922,16.572
			l0.925,5.246c0.628,3.561-1.362,4.773-3.309,8.413c-0.789,1.474-5.929,10.494,2.52,12.213
			c10.525,2.142,27.062-8.203,32.044-18.106C2021.35,1117.731,2009.694,1115.615,2006.949,1110.774z"/>
		<g>
			<path style="fill:#5C305D;" d="M1957.252,1060.248c0,0-0.281,7.039,3.282,15.008c3.564,7.969,7.567-14.41,7.567-14.41
				L1957.252,1060.248z"/>
			<path style="fill:#FFB27D;" d="M1960.051,1077.885c-1.411-16.606,8.609-31.017,22.381-32.188
				c13.772-1.171,26.081,11.343,27.492,27.95c1.411,16.607-8.609,31.018-22.381,32.188S1961.462,1094.492,1960.051,1077.885z"/>
			<path style="fill:#331832;" d="M2008.689,1065.074l-12.103,1.36c-2.661,0.299-5.347-0.578-7.237-2.474
				c-3.254-3.265-6.599-4.576-17.548-1.747c-13.864,3.582-24.916-2.733-28.026-9.717c-3.174-7.128,2.873-13.753,10.672-11.729
				c7.8,2.024,2.877-6.046,9.426-8.449c12.238-4.491,16.728,4.718,26.989,2.143c13.453-3.377,39.965,1.609,33.674,27.968
				L2008.689,1065.074z"/>
			<g>
				<path style="fill:#080435;" d="M1983.432,1074.813c-0.145-0.052-0.264-0.17-0.312-0.328c-0.082-0.267,0.067-0.551,0.335-0.633
					c0.157-0.048,3.705-1.516,6.424,2.002c0.172,0.222,0.141,0.538-0.077,0.714c-0.218,0.176-0.494,0.098-0.714-0.077
					c-2.192-1.753-5.203-1.708-5.334-1.668C1983.644,1074.854,1983.531,1074.849,1983.432,1074.813z"/>
			</g>
			<path style="fill:#080435;" d="M1986.971,1080.7c-0.062,1.209-0.823,2.153-1.7,2.108s-1.538-1.061-1.477-2.27
				c0.062-1.209,0.823-2.153,1.7-2.108C1986.371,1078.475,1987.032,1079.491,1986.971,1080.7z"/>
			<g>
				<path style="fill:#080435;" d="M1964.775,1077.351c-0.119,0.005-0.239-0.06-0.322-0.189c-0.14-0.218-0.119-0.536,0.046-0.712
					c0.097-0.104,2.176-2.785,5.178-0.531c0.189,0.142,0.264,0.447,0.162,0.691c-0.102,0.244-0.322,0.275-0.531,0.194
					c-2.092-0.812-4.221,0.35-4.302,0.436C1964.938,1077.311,1964.857,1077.348,1964.775,1077.351z"/>
			</g>
			<path style="fill:#080435;" d="M1970.405,1081.442c0.403,1.141,0.059,2.304-0.769,2.597c-0.828,0.293-1.827-0.395-2.23-1.536
				c-0.403-1.141-0.059-2.304,0.769-2.597C1969.003,1079.613,1970.002,1080.301,1970.405,1081.442z"/>
			<path style="fill:#5C305D;" d="M2024.536,1062.429c0,0-4.314,19.423-15.621,23.252c0,0,6.432-15.49-15.111-19.361
				C1993.803,1066.319,2011.314,1059.5,2024.536,1062.429z"/>
			<path style="fill:#FFB27D;" d="M2010.326,1075.735c-2.134,2.119-5.399,2.291-7.292,0.384c-1.894-1.907-1.699-5.17,0.435-7.289
				c2.134-2.119,5.398-2.291,7.292-0.385C2012.655,1070.352,2012.46,1073.616,2010.326,1075.735z"/>
			<path style="fill:#5C305D;" d="M1993.803,1066.319c0,0,4.819,14.454,2.418,17.911c-2.401,3.457-22.027,9.01-32.094,7.454l0,0
				c1.924,9.539,10.459,16.465,20.178,15.989c3.215-0.158,6.424-0.855,9.489-2.109l0,0c6.25-2.557,11.979-6.627,13.34-13.24
				c0.414-2.013-4.426-12.778-4.426-12.778s-2.339-6.428,0.759-10.716C2003.469,1068.83,1998.147,1065.805,1993.803,1066.319z"/>
			<path style="fill:#FFFFFF;" d="M1970.194,1095.95c0,0,8.072,0.396,16.223-2.232c0,0,0.465,7.978-8.297,8.285
				C1973.024,1102.182,1970.194,1095.95,1970.194,1095.95z"/>
			<g>
				<path style="fill:#331832;" d="M1955.49,1039.316l-0.125-0.671c3.241-0.604,2.966-3.246,2.953-3.358l0.677-0.083
					C1959,1035.237,1959.374,1038.592,1955.49,1039.316z"/>
			</g>
			<g>
				<path style="fill:#FFFFFF;" d="M1966.984,1059.162c-0.662-0.045-16.231-1.184-18.59-8.931c-0.682-2.239-0.617-3.855,0.199-4.941
					c1.3-1.73,4.209-1.688,6.784-1.654c0.38,0.005,0.748,0.007,1.109,0.01v0.341c-0.359,0.001-0.732-0.004-1.114-0.009
					c-2.49-0.034-5.311-0.073-6.506,1.518c-0.746,0.992-0.793,2.509-0.146,4.636c2.291,7.522,18.127,8.679,18.286,8.689
					L1966.984,1059.162z"/>
			</g>
			<g>
				<path style="fill:#FFFFFF;" d="M1986.687,1037.914c-7.963,0-12.63-3.531-12.694-3.581l0.209-0.27
					c0.088,0.068,8.87,6.699,22.955,1.559l0.117,0.321C1993.308,1037.39,1989.752,1037.914,1986.687,1037.914z"/>
			</g>
		</g>
	</g>
</g>
</svg>
